<svg xmlns="http://www.w3.org/2000/svg" xmlns:xlink="http://www.w3.org/1999/xlink" width="925" zoomAndPan="magnify" viewBox="0 0 693.75 109.499999" height="146" preserveAspectRatio="xMidYMid meet" version="1.0"><defs><g/><clipPath id="f34527f88b"><path d="M 1.453125 0 L 692.050781 0 L 692.050781 108 L 1.453125 108 Z M 1.453125 0 " clip-rule="nonzero"/></clipPath></defs><g clip-path="url(#f34527f88b)"><path stroke-linecap="butt" transform="matrix(1.39861, 0, 0, 1.39861, 1.452275, -9.13745)" fill="none" stroke-linejoin="miter" d="M 21.626435 63.93678 L 21.883387 63.808305 C 23.972515 63.28323 25.804692 62.755362 27.368745 62.230287 C 28.167529 62.037573 28.885318 61.783414 29.603106 61.512498 C 30.320895 61.255546 30.974446 61.001388 31.627997 60.601996 C 32.935098 59.948445 34.035521 59.10218 35.088464 58.052031 C 35.599574 57.524163 36.124649 56.951607 36.652517 56.233819 C 37.177592 55.51603 37.70546 54.717246 38.278015 53.806743 C 38.548932 53.410144 38.805883 52.756593 39.141038 51.846091 C 39.330958 51.19254 39.459434 50.346276 39.585117 49.438566 C 39.585117 48.720778 39.585117 47.857756 39.459434 46.885808 C 39.330958 46.103782 39.0768 45.321755 38.677407 44.525764 C 37.959619 43.361103 37.24183 42.436636 36.588279 41.783085 C 35.870491 41.190979 35.21694 40.744107 34.624834 40.473191 C 33.845601 40.219032 33.253495 40.026318 32.856896 39.964873 C 32.345785 39.964873 31.882155 39.81964 31.482763 39.565481 C 31.817917 39.101851 32.139107 38.654979 32.535706 38.129904 C 32.935098 37.602036 33.317733 37.076961 33.781363 36.42341 C 34.563389 35.258749 35.281178 33.951648 35.934729 32.51607 C 36.459804 31.080493 36.7782 29.499682 36.906676 27.809946 C 36.970914 26.103452 36.588279 24.285241 35.677777 22.386033 C 35.152702 21.335883 34.499151 20.361143 33.717125 19.453434 C 32.935098 18.526174 31.882155 17.808385 30.575054 17.28331 C 29.267952 16.7722 27.639661 16.501283 25.679009 16.501283 C 23.589881 16.501283 21.227043 16.900676 18.484364 17.554226 C 18.230206 17.618464 17.973254 17.74694 17.702338 17.872623 C 17.448179 18.001099 17.319703 18.272015 17.177263 18.654649 C 17.048787 18.989804 16.984549 19.514879 16.923104 20.296905 C 16.858866 20.67954 16.858866 21.078932 16.858866 21.6068 L 16.858866 23.360774 C 16.858866 24.014324 16.858866 24.796351 16.858866 25.65658 C 16.858866 26.502845 16.923104 27.410554 16.984549 28.399259 C 16.984549 29.438237 17.048787 30.552625 17.048787 31.798282 C 17.048787 33.024388 17.113025 34.412485 17.241501 35.848062 C 17.241501 38.847692 17.319703 41.400451 17.448179 43.489579 C 17.448179 44.590002 17.512417 45.642945 17.512417 46.550654 C 17.512417 47.539359 17.576655 48.449861 17.576655 49.293333 L 17.576655 53.935219 C 17.576655 54.653008 17.512417 55.370797 17.512417 56.024347 C 17.512417 56.677898 17.448179 57.395687 17.448179 58.052031 C 17.319703 59.10218 17.319703 60.012683 17.448179 60.920392 C 17.512417 61.91189 17.766576 62.8196 18.230206 63.601626 C 18.755281 64.001018 19.266391 64.190939 19.855704 64.190939 C 20.509255 64.190939 21.10136 64.126701 21.626435 63.93678 Z M 22.601176 41.271975 L 22.872092 41.400451 C 22.662621 40.473191 22.536938 39.501243 22.4727 38.590741 L 22.218541 35.848062 C 22.090065 34.923595 22.00907 34.015885 22.00907 33.105383 L 21.883387 30.362704 L 21.690673 24.874554 C 21.626435 23.950086 21.562198 23.103822 21.562198 22.196113 C 21.562198 21.271645 21.500753 20.425381 21.500753 19.514879 C 22.00907 19.243962 22.601176 19.054042 23.254726 18.925566 C 23.525643 18.925566 23.844039 18.861328 24.114956 18.861328 L 25.025458 18.861328 C 25.804692 18.861328 26.461035 18.989804 27.050348 19.243962 C 27.575423 19.579117 28.086533 20.025989 28.485926 20.618095 C 28.885318 21.271645 29.203714 21.925196 29.457873 22.642985 L 29.857265 23.821611 C 29.985741 24.221003 30.111424 24.667875 30.256657 25.067267 C 30.639292 26.567082 30.703529 28.064105 30.446578 29.644916 C 30.047186 31.270414 29.538869 32.770229 28.804322 34.141568 C 28.421688 34.923595 27.958058 35.641384 27.511185 36.294934 C 27.050348 36.948485 26.52248 37.602036 25.997405 38.194142 C 25.408092 38.847692 24.832744 39.372767 24.307669 39.900635 C 23.779801 40.411746 23.190489 40.872583 22.601176 41.271975 Z M 22.872092 60.794709 L 23.126251 60.283599 L 22.933537 59.884207 C 22.807854 59.819969 22.807854 59.694286 22.807854 59.487608 L 22.807854 44.860918 C 23.254726 44.732442 23.651326 44.525764 24.036753 44.397288 C 24.369114 44.271605 24.690304 44.207367 25.025458 44.078892 C 25.279617 44.014654 25.614771 43.950416 25.86893 43.807975 C 26.139846 43.743737 26.33256 43.679499 26.586718 43.553817 C 26.779432 43.489579 26.98611 43.425341 27.178824 43.361103 C 27.368745 43.361103 27.575423 43.296865 27.832375 43.154424 C 28.228974 43.025949 28.675846 42.897473 29.203714 42.77179 C 29.664551 42.643314 30.175662 42.707552 30.829212 43.090187 C 31.35708 43.489579 31.882155 44.078892 32.410023 44.860918 C 32.856896 45.642945 33.189257 46.614892 33.38197 47.667835 C 33.510446 48.720778 33.510446 49.949677 33.253495 51.256778 C 32.72842 53.281668 32.010631 54.923924 31.100129 56.088585 C 30.047186 57.395687 29.011001 58.384392 27.958058 59.040736 C 26.921872 59.758524 25.86893 60.202604 24.832744 60.476313 C 23.779801 60.730471 23.126251 60.858947 22.872092 60.794709 Z M 73.692647 63.93678 L 73.566964 63.601626 C 74.284753 63.537388 74.809828 63.408912 75.128224 63.154754 C 75.385176 62.883837 75.591854 62.629679 75.591854 62.308489 C 75.591854 62.037573 75.385176 61.719176 75.066779 61.44826 C 74.667387 61.194102 74.220515 61.065626 73.692647 61.065626 C 72.25707 61.001388 71.142682 61.001388 70.232179 61.065626 C 69.307712 61.194102 68.525686 61.255546 67.872135 61.255546 C 67.4895 61.319784 67.154346 61.319784 66.900188 61.319784 L 66.118161 61.319784 C 65.590293 61.319784 65.065218 61.255546 64.53735 61.001388 C 64.029033 60.476313 63.758117 59.948445 63.758117 59.359132 C 63.693879 59.10218 63.629641 58.769819 63.629641 58.512868 C 63.629641 58.258709 63.629641 57.923555 63.629641 57.605158 C 63.501165 51.321016 63.436927 45.897103 63.436927 41.461896 L 63.436927 30.362704 C 63.436927 27.410554 63.375482 25.067267 63.247006 23.360774 C 63.104566 21.668245 62.847614 20.425381 62.448222 19.643354 C 62.065588 18.861328 61.476275 18.400491 60.758486 18.272015 C 60.104935 18.143539 59.132988 18.207777 57.823094 18.400491 C 57.298019 18.526174 56.898626 18.654649 56.644468 18.799883 C 56.373551 18.989804 56.180838 19.453434 56.052362 20.090227 C 55.926679 20.889011 55.862441 21.860958 55.926679 23.16806 C 55.990917 24.603637 56.052362 26.438607 56.1166 28.720448 C 56.1166 31.080493 56.180838 34.015885 56.309314 37.666274 C 56.309314 41.336213 56.309314 45.70439 56.309314 50.809906 C 56.180838 54.463087 56.373551 57.270004 56.898626 59.166418 C 57.362256 61.129864 58.205728 62.436965 59.515622 63.218992 C 60.822724 64.001018 62.657693 64.397617 64.872504 64.319415 C 67.090108 64.319415 70.042259 64.190939 73.692647 63.93678 Z M 110.084812 61.91189 L 110.020574 61.44826 C 110.738362 60.601996 111.330468 59.549053 111.777341 58.258709 C 111.967261 57.605158 112.17394 56.951607 112.366653 56.295264 C 112.492336 55.641713 112.701808 54.923924 112.82749 54.141898 C 113.084442 52.692356 113.274363 51.256778 113.419596 49.949677 C 113.545279 48.639782 113.609517 47.413676 113.609517 46.232258 L 113.609517 33.88741 C 113.609517 32.962943 113.545279 32.116678 113.545279 31.206176 C 113.545279 30.362704 113.483834 29.499682 113.483834 28.656211 C 113.338601 27.092157 113.274363 25.592342 113.274363 24.1428 C 113.14868 22.849663 113.084442 21.79672 113.084442 21.014694 C 112.955966 20.090227 112.701808 19.579117 112.430891 19.3082 C 112.048257 19.054042 111.520389 18.861328 110.8026 18.799883 C 110.277525 18.799883 109.813895 18.799883 109.431261 18.799883 C 108.906186 18.925566 108.442556 19.118279 108.059921 19.372438 C 107.789005 19.900306 107.660529 21.078932 107.724767 23.042377 C 107.724767 24.078562 107.789005 25.131505 107.853243 26.310131 C 107.853243 27.474792 107.931446 28.720448 108.059921 30.091788 C 108.188397 32.834467 108.31408 35.783824 108.442556 38.91193 C 108.571032 42.054001 108.571032 45.050839 108.442556 47.921994 C 108.31408 50.809906 107.995684 53.345906 107.470609 55.577475 C 106.942741 57.795079 106.096476 59.294894 104.982088 60.141159 C 103.289559 59.359132 102.239409 58.052031 101.853982 56.233819 C 101.264669 53.870981 100.739594 51.781853 100.340202 49.885439 C 99.957568 48.067227 99.622413 46.360733 99.368255 44.79668 C 98.840387 41.783085 98.457752 39.247085 98.186836 37.283639 C 97.932677 35.322987 97.804202 33.616493 97.804202 32.306599 C 97.804202 31.653048 97.804202 31.080493 97.804202 30.488387 C 97.804202 29.899074 97.86844 29.309761 97.932677 28.720448 C 97.932677 28.192581 97.994122 27.620025 97.994122 27.02792 C 97.994122 26.438607 98.05836 25.849294 98.05836 25.195743 C 98.05836 24.014324 97.932677 22.386033 97.661761 20.296905 C 97.533285 19.643354 97.340572 19.243962 96.943972 18.989804 C 96.4971 18.799883 95.904994 18.654649 95.251443 18.654649 C 94.533655 18.654649 94.00858 18.799883 93.751628 18.925566 C 93.355029 19.182517 93.098077 19.514879 92.972395 19.900306 C 92.701478 20.425381 92.573002 21.014694 92.573002 21.668245 C 92.444527 22.450271 92.380289 23.360774 92.380289 24.413716 C 92.109372 26.885479 91.98369 29.05281 91.98369 30.873814 C 91.919452 32.705991 91.919452 34.412485 91.98369 35.848062 C 91.98369 36.630089 92.045135 37.347877 92.045135 38.065666 C 92.045135 38.783455 92.109372 39.501243 92.237848 40.154794 C 92.380289 41.590371 92.573002 43.025949 92.827161 44.461526 C 93.098077 46.103782 93.416474 47.796311 93.815866 49.502804 C 94.00858 50.410514 94.198501 51.463457 94.407972 52.56388 C 94.597893 53.681061 94.790606 54.859686 95.061523 56.088585 C 95.315681 57.923555 96.097708 59.487608 97.404809 60.858947 C 98.586228 62.308489 99.957568 63.28323 101.521621 63.808305 C 103.082881 64.461855 104.599454 64.590331 106.160714 64.319415 C 107.724767 64.062463 109.031869 63.28323 110.084812 61.91189 Z M 134.897397 64.190939 L 135.615186 63.93678 C 136.796605 63.872542 137.849548 63.808305 138.757257 63.744067 C 139.667759 63.679829 140.463751 63.601626 141.181539 63.47315 C 142.491434 63.344675 143.527619 63.218992 144.309646 63.090516 C 145.088879 62.948075 145.552509 62.8196 145.806668 62.629679 C 146.080377 62.436965 146.334536 62.166049 146.524457 61.847652 C 146.141822 61.255546 145.552509 60.858947 144.898958 60.666234 C 144.245408 60.537758 143.463381 60.412075 142.552879 60.412075 C 142.092042 60.412075 141.628412 60.476313 141.245777 60.476313 C 140.846385 60.476313 140.385548 60.537758 139.938676 60.537758 C 139.014209 60.666234 138.167944 60.666234 137.450155 60.537758 C 137.32168 60.283599 137.260235 60.141159 137.260235 60.012683 C 137.131759 59.884207 137.131759 59.758524 137.131759 59.630048 L 137.131759 43.090187 C 137.131759 42.836028 137.131759 42.643314 137.195997 42.579076 C 137.195997 42.579076 137.260235 42.372398 137.385918 41.989763 C 137.913785 41.84453 138.567336 41.718847 139.349363 41.718847 L 141.310015 41.718847 C 141.837883 41.718847 142.491434 41.654609 143.270667 41.400451 C 143.862773 41.271975 144.435328 40.872583 145.088879 40.219032 C 144.580562 39.755402 143.927011 39.437005 143.209222 39.182847 C 142.410438 38.976168 141.756887 38.847692 141.245777 38.847692 L 139.285125 38.847692 C 138.567336 38.847692 137.913785 38.783455 137.385918 38.654979 C 137.260235 38.319825 137.131759 37.730512 136.986525 36.822802 C 136.860843 35.9123 136.732367 34.859357 136.603891 33.680731 C 136.478208 33.105383 136.41397 32.51607 136.41397 31.862519 C 136.41397 31.206176 136.349732 30.552625 136.349732 29.834836 C 136.207292 28.527735 136.143054 27.220633 136.143054 25.910739 C 136.078816 25.321426 136.014578 24.732113 136.014578 24.221003 C 136.014578 23.695928 136.014578 23.232298 136.014578 22.707223 L 136.014578 21.542562 C 136.014578 21.271645 136.014578 21.014694 136.078816 20.824773 C 137.385918 20.553857 138.43886 20.425381 139.285125 20.425381 C 140.002914 20.489619 140.720702 20.553857 141.502729 20.618095 C 142.15628 20.743778 142.80983 20.67954 143.334905 20.553857 C 143.862773 20.425381 144.580562 20.025989 145.488271 19.243962 C 145.153117 18.799883 144.770483 18.464729 144.309646 18.207777 C 143.781778 18.001099 143.334905 17.872623 142.874068 17.808385 C 142.552879 17.808385 142.220517 17.74694 141.837883 17.74694 C 141.438491 17.74694 140.974861 17.682702 140.527989 17.554226 C 140.002914 17.489988 139.539284 17.425751 139.014209 17.425751 C 138.503098 17.425751 137.913785 17.347548 137.32168 17.28331 C 136.668129 17.28331 136.078816 17.28331 135.489503 17.28331 C 134.835952 17.28331 134.243847 17.347548 133.590296 17.425751 C 132.299952 17.554226 130.990057 17.808385 129.682956 18.207777 C 129.55448 18.925566 129.476277 19.579117 129.41204 20.232667 C 129.347802 20.889011 129.347802 21.478324 129.347802 22.050879 L 129.347802 23.950086 C 129.347802 24.603637 129.347802 25.257188 129.41204 25.974977 C 129.41204 26.757003 129.476277 27.53903 129.476277 28.337814 C 129.476277 29.117048 129.55448 30.02755 129.682956 30.935259 C 129.811432 32.898705 129.937115 35.258749 130.06559 37.875745 C 130.194066 40.618424 130.336507 43.872213 130.464982 47.667835 C 130.52922 49.628487 130.590665 51.717615 130.654903 53.935219 C 130.654903 56.152823 130.719141 58.577105 130.783379 61.194102 C 130.783379 61.512498 130.783379 61.783414 130.783379 62.037573 C 130.783379 62.308489 130.847617 62.501203 130.92582 62.691124 C 130.92582 63.090516 131.118533 63.408912 131.501168 63.679829 C 131.836322 64.001018 132.218956 64.190939 132.744031 64.190939 C 133.271899 64.319415 133.989688 64.319415 134.897397 64.190939 Z M 196.903725 63.93678 L 196.775249 63.601626 C 197.493038 63.537388 198.018113 63.408912 198.339302 63.154754 C 198.593461 62.883837 198.800139 62.629679 198.800139 62.308489 C 198.800139 62.037573 198.593461 61.719176 198.275064 61.44826 C 197.875672 61.194102 197.4288 61.065626 196.903725 61.065626 C 195.468148 61.001388 194.350967 61.001388 193.440464 61.065626 C 192.515997 61.194102 191.733971 61.255546 191.08042 61.255546 C 190.697786 61.319784 190.362631 61.319784 190.108473 61.319784 L 189.326446 61.319784 C 188.801371 61.319784 188.273503 61.255546 187.748428 61.001388 C 187.237318 60.476313 186.966402 59.948445 186.966402 59.359132 C 186.902164 59.10218 186.837926 58.769819 186.837926 58.512868 C 186.837926 58.258709 186.837926 57.923555 186.837926 57.605158 C 186.70945 51.321016 186.648005 45.897103 186.648005 41.461896 L 186.648005 30.362704 C 186.648005 27.410554 186.583767 25.067267 186.455291 23.360774 C 186.312851 21.668245 186.055899 20.425381 185.6593 19.643354 C 185.276666 18.861328 184.68456 18.400491 183.966771 18.272015 C 183.31322 18.143539 182.341273 18.207777 181.031379 18.400491 C 180.506304 18.526174 180.106912 18.654649 179.852753 18.799883 C 179.581837 18.989804 179.389123 19.453434 179.26344 20.090227 C 179.134964 20.889011 179.070726 21.860958 179.134964 23.16806 C 179.199202 24.603637 179.26344 26.438607 179.324885 28.720448 C 179.324885 31.080493 179.389123 34.015885 179.517599 37.666274 C 179.517599 41.336213 179.517599 45.70439 179.517599 50.809906 C 179.389123 54.463087 179.581837 57.270004 180.106912 59.166418 C 180.570542 61.129864 181.416806 62.436965 182.723908 63.218992 C 184.031009 64.001018 185.865979 64.397617 188.083582 64.319415 C 190.298393 64.319415 193.250544 64.190939 196.903725 63.93678 Z M 220.216495 64.062463 L 220.294698 64.001018 C 220.948249 64.001018 221.523597 63.872542 221.922989 63.601626 C 222.319588 63.47315 222.57654 63.090516 222.702223 62.436965 C 222.830698 61.783414 222.830698 61.001388 222.830698 60.076921 C 222.702223 59.10218 222.640778 57.859317 222.640778 56.295264 C 222.448064 53.410144 222.319588 50.874144 222.177148 48.514099 C 222.048672 46.16802 221.984434 44.078892 221.922989 42.243922 C 221.794513 40.411746 221.730275 38.783455 221.730275 37.283639 C 221.666037 35.783824 221.6018 34.476723 221.6018 33.298097 C 221.523597 32.180916 221.459359 31.206176 221.459359 30.281709 C 221.459359 29.373999 221.459359 28.656211 221.459359 28.00266 L 221.459359 24.874554 C 221.459359 24.477954 221.395121 24.014324 221.395121 23.63169 C 221.395121 23.232298 221.330883 22.768668 221.330883 22.386033 C 221.2052 21.6068 221.076725 20.489619 220.948249 19.118279 C 220.805808 18.207777 220.423174 17.554226 219.833861 17.154834 C 219.177517 16.7722 218.588204 16.565521 217.934654 16.565521 C 217.281103 16.565521 216.69179 16.7722 216.18068 17.090596 C 215.588574 17.489988 215.256213 17.936861 215.256213 18.464729 C 215.191975 18.654649 215.191975 18.925566 215.191975 19.182517 L 215.191975 24.603637 C 215.191975 25.257188 215.191975 25.910739 215.191975 26.692765 C 215.191975 27.474792 215.256213 28.399259 215.317658 29.309761 C 215.317658 31.270414 215.381895 33.616493 215.527129 36.359172 C 215.527129 37.219401 215.588574 38.001428 215.588574 38.654979 L 215.588574 45.450231 C 215.588574 45.978099 215.588574 46.486416 215.652812 47.014284 C 215.652812 47.539359 215.71705 48.128672 215.71705 48.720778 C 215.71705 49.357571 215.781288 50.011122 215.909763 50.664672 C 216.035446 51.974567 216.18068 53.616823 216.306363 55.51603 C 216.434838 57.270004 216.627552 59.42337 216.898468 62.037573 C 216.962706 62.755362 217.152627 63.28323 217.552019 63.601626 C 217.934654 64.001018 218.780918 64.190939 220.216495 64.062463 Z M 257.924141 63.601626 L 257.988378 63.93678 C 259.29548 63.808305 260.460141 63.47315 261.513084 62.948075 C 262.423586 62.501203 263.205613 61.91189 263.923401 61.194102 C 264.576952 60.537758 265.102027 59.819969 265.437181 59.040736 C 265.69134 58.258709 265.948292 57.524163 266.219208 56.88737 C 266.347684 56.233819 266.473367 55.641713 266.601842 55.116638 C 266.601842 54.58877 266.66608 54.270373 266.808521 54.141898 C 266.409129 53.488347 265.884054 53.091748 265.294741 52.963272 C 264.64119 52.963272 264.065842 52.963272 263.537974 52.963272 C 262.948661 53.02751 262.487824 53.281668 262.166635 53.681061 C 261.770035 54.206136 261.448846 54.653008 261.242168 55.0524 C 260.923771 55.705951 260.669612 56.233819 260.524379 56.742136 C 260.27022 57.395687 260.013269 57.987793 259.742352 58.44863 C 259.359718 59.040736 258.963119 59.487608 258.499489 59.819969 C 257.924141 60.283599 257.27059 60.537758 256.552801 60.537758 C 254.192757 59.694286 252.357787 58.322947 250.92221 56.423739 C 249.486633 54.58877 248.386209 52.435404 247.590218 49.949677 C 246.808192 47.603597 246.361319 45.050839 246.218879 42.30816 C 246.090403 41.001058 246.090403 39.629719 246.154641 38.319825 C 246.154641 37.012723 246.283117 35.705621 246.489795 34.412485 C 246.743954 31.798282 247.271822 29.373999 248.051055 27.156395 C 248.768844 24.938791 249.615108 23.16806 250.668051 21.79672 C 251.704236 20.425381 252.821417 19.579117 254.064281 19.243962 C 255.309937 18.925566 256.552801 19.3082 257.845938 20.489619 C 258.116854 20.743778 258.306775 20.950456 258.499489 21.14317 C 258.706167 21.397328 258.898881 21.6068 259.088802 21.79672 C 259.359718 22.196113 259.678114 22.514509 260.077507 22.768668 C 260.334458 23.042377 260.669612 23.232298 261.052247 23.360774 C 261.387401 23.486456 261.83148 23.567452 262.423586 23.486456 C 263.348053 23.486456 263.794926 23.103822 263.794926 22.324588 C 263.794926 21.668245 263.476529 20.889011 262.884423 19.961751 C 262.230873 19.182517 261.387401 18.400491 260.334458 17.618464 C 259.153039 16.964913 257.988378 16.565521 256.809753 16.437046 C 256.346123 16.437046 255.89925 16.372808 255.43562 16.372808 L 253.938598 16.372808 C 252.821417 16.372808 251.704236 16.501283 250.668051 16.7722 C 249.486633 17.029151 248.450447 17.489988 247.397504 18.143539 C 246.361319 18.799883 245.372614 19.77183 244.52635 21.014694 C 242.819856 23.486456 241.512755 26.310131 240.602252 29.438237 C 239.630305 32.705991 239.10523 35.9123 239.10523 39.037613 C 239.040992 42.30816 239.359389 45.514469 240.077177 48.514099 C 240.794966 51.65617 241.912147 54.334611 243.473407 56.616453 C 245.054218 58.976498 247.01487 60.794709 249.425188 62.101811 C 251.84947 63.408912 254.656387 63.93678 257.924141 63.601626 Z M 290.707811 63.344675 L 290.707811 63.47315 C 293.196332 64.126701 295.221222 64.126701 296.656799 63.601626 C 298.092376 63.090516 299.463716 61.719176 300.645135 59.487608 C 300.770817 59.230656 300.899293 58.976498 301.027769 58.641343 L 301.488606 57.459925 C 301.759522 56.677898 302.077919 55.705951 302.477311 54.524532 C 302.605787 53.999457 302.795708 53.410144 302.924183 52.834796 C 303.052659 52.245483 303.1951 51.591932 303.323576 50.938382 C 303.577734 49.628487 303.787206 48.257148 303.912888 46.82157 C 303.977126 45.642945 304.105602 44.271605 304.295523 42.77179 C 304.359761 42.054001 304.423999 41.271975 304.502201 40.473191 C 304.566439 39.693957 304.630677 38.847692 304.759153 37.93719 C 304.887629 36.230696 304.949074 34.54096 304.949074 32.705991 C 304.949074 31.862519 304.887629 31.016255 304.823391 30.156026 C 304.694915 29.309761 304.566439 28.463497 304.423999 27.53903 C 304.105602 25.910739 303.577734 24.349479 302.859945 22.768668 C 302.077919 21.335883 301.105972 20.025989 299.927346 18.861328 C 299.209557 18.336253 298.427531 18.001099 297.500271 18.001099 L 294.039803 18.001099 C 292.350067 18.143539 290.978728 18.526174 289.925785 19.182517 C 288.744366 19.961751 287.836657 20.950456 287.183106 22.115117 C 286.401079 23.425011 285.873211 24.874554 285.490577 26.438607 C 285.093978 28.128343 284.772788 29.834836 284.501872 31.527365 C 284.247713 33.298097 284.055 35.130273 283.912559 36.948485 C 283.784083 37.875745 283.719845 38.783455 283.6584 39.629719 C 283.529925 40.473191 283.465687 41.336213 283.401449 42.118239 C 283.259008 43.025949 283.19477 43.950416 283.130532 44.860918 C 283.066295 45.768628 283.066295 46.695888 283.066295 47.539359 C 283.066295 48.449861 283.066295 49.293333 283.130532 50.220593 C 283.130532 51.128302 283.19477 52.038805 283.323246 52.963272 C 283.529925 54.58877 283.912559 56.024347 284.56611 57.270004 C 285.219661 58.577105 286.001687 59.819969 287.05463 60.920392 C 287.579705 61.576736 288.090815 62.101811 288.680128 62.436965 C 289.397917 62.883837 290.05426 63.218992 290.707811 63.344675 Z M 293.067856 60.666234 L 293.322014 60.920392 C 292.143389 59.948445 291.297124 58.831264 290.643573 57.605158 C 289.925785 56.295264 289.478912 54.988162 289.336472 53.616823 C 288.953837 51.781853 288.744366 49.756963 288.744366 47.539359 C 288.680128 46.422178 288.680128 45.321755 288.680128 44.143129 C 288.680128 43.025949 288.680128 41.84453 288.825362 40.682662 C 288.8896 39.501243 288.953837 38.384062 289.07952 37.219401 C 289.143758 36.105014 289.272234 34.987833 289.478912 33.823172 C 289.733071 31.58881 290.115705 29.56392 290.643573 27.745708 C 291.042966 25.974977 291.56804 24.477954 292.221591 23.16806 C 292.732701 21.989434 293.386252 21.207408 294.168279 20.824773 C 294.82183 21.078932 295.28546 21.397328 295.682059 21.925196 C 295.93901 22.450271 296.193169 22.978139 296.464085 23.63169 C 296.721037 24.539399 297.056191 25.385664 297.31035 26.310131 C 297.564508 27.220633 297.835425 28.064105 298.092376 28.910369 C 298.617451 30.616863 298.810165 32.451832 298.745927 34.412485 C 298.745927 37.476353 298.681689 40.473191 298.553213 43.361103 C 298.427531 46.360733 298.092376 49.293333 297.564508 52.309721 C 297.374588 53.345906 297.056191 54.398849 296.656799 55.435034 C 296.399847 55.960109 296.193169 56.423739 296.003248 56.951607 C 295.746297 57.459925 295.539618 57.923555 295.349698 58.384392 C 295.092746 58.91226 294.82183 59.359132 294.567671 59.694286 C 294.249274 60.076921 293.721406 60.412075 293.067856 60.666234 Z M 340.173784 63.93678 L 340.238022 63.601626 C 340.363705 63.601626 340.556419 63.47315 340.827335 63.218992 L 341.464128 62.565441 C 339.902868 60.076921 338.403053 57.666603 336.967475 55.306559 C 336.185449 54.141898 335.403422 53.02751 334.607431 51.846091 C 333.761167 50.664672 332.914902 49.564249 332.071431 48.385624 C 332.197113 48.257148 332.389827 48.067227 332.518303 47.921994 C 332.660743 47.796311 332.789219 47.603597 332.914902 47.413676 C 333.043378 47.268443 333.171854 47.078522 333.297537 46.950046 L 333.696929 46.550654 L 335.46766 44.79668 L 337.221634 43.025949 C 338.802445 41.461896 339.967106 39.693957 340.74634 37.730512 C 341.545124 35.9123 341.991996 34.015885 342.117679 32.05244 C 342.262912 30.217471 342.056234 28.399259 341.609362 26.567082 C 341.145732 24.874554 340.427943 23.296536 339.439238 21.989434 C 338.403053 20.67954 337.221634 19.643354 335.914533 18.861328 C 334.478955 18.082094 332.914902 17.682702 331.208408 17.682702 C 328.211571 17.682702 326.058205 17.808385 324.751103 18.082094 C 323.315526 18.336253 322.388266 18.925566 322.005632 19.836068 C 321.480557 20.824773 321.352081 22.196113 321.480557 23.950086 C 321.609032 25.785056 321.670477 28.256818 321.670477 31.270414 C 321.670477 33.88741 321.670477 36.501613 321.670477 39.101851 C 321.544794 41.718847 321.544794 44.33305 321.670477 46.950046 C 321.670477 51.256778 321.815711 54.524532 322.069869 56.742136 C 322.198345 59.040736 322.469262 60.666234 322.851896 61.719176 C 323.18705 62.755362 323.505447 63.344675 323.904839 63.47315 C 324.09476 63.601626 324.287473 63.679829 324.494152 63.679829 C 324.686865 63.744067 324.876786 63.808305 325.133738 63.808305 C 326.376601 63.93678 327.236831 63.808305 327.747941 63.537388 C 328.275809 63.28323 328.610963 62.8196 328.736646 62.101811 C 328.865122 61.44826 328.865122 60.476313 328.736646 59.294894 C 328.610963 58.705581 328.529967 58.052031 328.529967 57.334242 C 328.46573 56.616453 328.401492 55.834427 328.401492 54.923924 C 328.401492 54.923924 328.46573 54.859686 328.610963 54.717246 C 328.736646 54.717246 328.800884 54.58877 328.865122 54.463087 L 329.837069 55.435034 C 329.982302 55.641713 330.172223 55.834427 330.300699 56.024347 C 330.429175 56.295264 330.635853 56.487977 330.890012 56.742136 C 331.082726 57.013052 331.272646 57.334242 331.479325 57.666603 C 331.672038 57.987793 331.861959 58.322947 332.135668 58.705581 C 332.325589 59.10218 332.579748 59.549053 332.853457 60.012683 C 333.107616 60.537758 333.378532 61.065626 333.696929 61.576736 C 334.414717 62.883837 335.32522 63.679829 336.439608 64.062463 C 337.49255 64.461855 338.721449 64.461855 340.173784 63.93678 Z M 328.211571 45.385993 L 328.147333 45.450231 C 327.812179 44.525764 327.619465 43.154424 327.619465 41.336213 C 327.55802 40.411746 327.493782 39.372767 327.493782 38.319825 C 327.493782 37.283639 327.493782 36.166459 327.493782 34.987833 C 327.493782 33.823172 327.429544 32.641753 327.429544 31.398889 C 327.429544 30.156026 327.365306 28.910369 327.365306 27.620025 C 327.236831 25.067267 327.09439 22.642985 326.965914 20.425381 C 328.529967 20.171222 329.901307 20.296905 331.082726 20.743778 C 332.135668 21.207408 333.107616 22.050879 333.889642 23.296536 C 334.814109 24.732113 335.46766 26.310131 335.721819 28.00266 C 335.97877 29.56392 335.97877 31.206176 335.786057 32.770229 C 335.531898 34.412485 335.132506 35.9123 334.607431 37.219401 C 333.95388 38.654979 333.297537 39.900635 332.660743 40.936821 C 331.861959 42.118239 331.146963 43.025949 330.364937 43.807975 C 329.58291 44.590002 328.865122 45.115077 328.211571 45.385993 Z M 362.240898 64.654569 L 362.576052 63.872542 C 363.548 64.126701 364.265788 64.126701 364.793656 64.001018 C 365.318731 63.872542 365.701366 63.679829 366.03652 63.344675 C 366.354917 63.026278 366.561595 62.691124 366.625833 62.308489 C 366.690071 61.91189 366.690071 61.512498 366.625833 61.001388 C 366.625833 60.920392 366.561595 60.730471 366.561595 60.476313 C 366.561595 60.202604 366.50015 59.884207 366.50015 59.42337 C 366.435912 58.641343 366.354917 57.666603 366.290679 56.359502 C 366.229234 55.770189 366.164996 55.180876 366.164996 54.524532 C 366.164996 53.870981 366.100758 53.217431 366.100758 52.499642 C 366.03652 51.846091 365.972282 51.128302 365.972282 50.474752 C 365.972282 49.821201 365.972282 49.103412 365.972282 48.449861 L 365.972282 44.925156 C 365.972282 43.872213 366.03652 43.090187 366.164996 42.579076 C 366.625833 42.372398 367.217939 42.243922 367.935727 42.118239 C 368.254124 42.118239 368.589278 42.054001 368.843437 42.054001 L 369.753939 42.054001 C 370.40749 42.054001 370.996803 41.989763 371.521878 41.783085 C 372.049746 41.654609 372.574821 41.271975 373.085931 40.618424 C 372.957455 40.090556 372.703296 39.755402 372.368142 39.501243 C 371.985508 39.372767 371.521878 39.247085 370.996803 39.101851 C 370.678406 39.101851 370.343252 39.037613 370.024855 39.037613 L 367.279384 39.037613 C 366.754309 39.037613 366.164996 39.037613 365.57289 38.976168 L 364.411022 22.386033 C 365.318731 22.324588 366.164996 22.26035 366.947022 22.196113 C 367.662018 22.115117 368.318362 22.050879 368.907675 21.925196 C 370.089093 21.79672 370.932565 21.668245 371.586116 21.542562 C 372.178221 21.397328 372.639059 21.271645 372.957455 21.014694 C 373.231164 20.824773 373.485323 20.489619 373.675244 20.025989 C 373.485323 19.900306 373.356847 19.77183 373.231164 19.643354 C 372.957455 19.514879 372.703296 19.372438 372.574821 19.243962 C 372.178221 19.118279 371.843067 18.989804 371.586116 18.925566 C 371.203481 18.925566 370.678406 18.925566 370.024855 18.925566 C 368.52504 19.054042 367.217939 19.118279 366.164996 19.182517 C 365.126018 19.243962 364.201551 19.3082 363.483762 19.372438 C 362.701735 19.514879 362.112422 19.579117 361.587347 19.579117 C 361.076237 19.643354 360.676845 19.707592 360.422686 19.707592 C 359.833374 19.77183 359.433981 19.900306 359.241268 20.025989 C 359.115585 20.171222 358.780431 20.296905 358.26932 20.489619 C 358.26932 20.743778 358.333558 20.950456 358.333558 21.14317 C 358.333558 21.397328 358.397796 21.6068 358.459241 21.79672 C 358.459241 22.050879 358.523479 22.26035 358.523479 22.386033 L 358.523479 22.913901 C 358.651955 26.438607 358.780431 29.709153 358.906114 32.641753 C 358.987109 35.641384 359.051347 38.319825 359.17703 40.682662 C 359.241268 43.090187 359.305506 45.243553 359.369744 47.204205 C 359.369744 49.16765 359.433981 50.938382 359.498219 52.435404 C 359.498219 55.577475 359.559664 57.923555 359.704898 59.487608 C 359.704898 61.194102 359.833374 62.372727 360.087532 63.026278 C 360.277453 63.808305 360.551162 64.190939 360.869559 64.319415 C 361.268951 64.526093 361.729788 64.654569 362.240898 64.654569 Z M 395.426754 64.062463 L 395.504957 64.001018 C 396.158507 64.001018 396.733856 63.872542 397.133248 63.601626 C 397.529847 63.47315 397.786798 63.090516 397.912481 62.436965 C 398.040957 61.783414 398.040957 61.001388 398.040957 60.076921 C 397.912481 59.10218 397.851036 57.859317 397.851036 56.295264 C 397.658323 53.410144 397.529847 50.874144 397.387406 48.514099 C 397.258931 46.16802 397.194693 44.078892 397.133248 42.243922 C 397.004772 40.411746 396.940534 38.783455 396.940534 37.283639 C 396.876296 35.783824 396.812058 34.476723 396.812058 33.298097 C 396.733856 32.180916 396.669618 31.206176 396.669618 30.281709 C 396.669618 29.373999 396.669618 28.656211 396.669618 28.00266 L 396.669618 24.874554 C 396.669618 24.477954 396.60538 24.014324 396.60538 23.63169 C 396.60538 23.232298 396.541142 22.768668 396.541142 22.386033 C 396.415459 21.6068 396.286983 20.489619 396.158507 19.118279 C 396.016067 18.207777 395.633432 17.554226 395.041327 17.154834 C 394.387776 16.7722 393.798463 16.565521 393.144912 16.565521 C 392.491361 16.565521 391.899256 16.7722 391.390938 17.090596 C 390.798833 17.489988 390.463678 17.936861 390.463678 18.464729 C 390.402233 18.654649 390.402233 18.925566 390.402233 19.182517 L 390.402233 24.603637 C 390.402233 25.257188 390.402233 25.910739 390.402233 26.692765 C 390.402233 27.474792 390.463678 28.399259 390.527916 29.309761 C 390.527916 31.270414 390.592154 33.616493 390.737388 36.359172 C 390.737388 37.219401 390.798833 38.001428 390.798833 38.654979 L 390.798833 45.450231 C 390.798833 45.978099 390.798833 46.486416 390.86307 47.014284 C 390.86307 47.539359 390.927308 48.128672 390.927308 48.720778 C 390.927308 49.357571 390.991546 50.011122 391.120022 50.664672 C 391.245705 51.974567 391.390938 53.616823 391.516621 55.51603 C 391.645097 57.270004 391.837811 59.42337 392.108727 62.037573 C 392.172965 62.755362 392.362886 63.28323 392.762278 63.601626 C 393.144912 64.001018 393.991177 64.190939 395.426754 64.062463 Z M 432.673562 63.808305 L 433.327113 64.001018 C 434.234822 64.001018 434.888373 63.872542 435.352003 63.537388 C 435.734638 63.28323 436.069792 62.691124 436.32395 61.783414 C 436.594867 60.476313 436.851818 58.705581 437.105977 56.487977 L 437.376893 53.091748 C 437.441131 51.974567 437.505369 50.809906 437.633845 49.628487 C 437.759528 47.268443 437.904761 45.050839 438.030444 42.961711 C 438.094682 41.925526 438.15892 41.065296 438.15892 40.28327 C 438.15892 39.565481 438.223158 38.976168 438.287396 38.4483 C 438.351634 36.948485 438.413078 35.577146 438.413078 34.270044 C 438.413078 32.962943 438.351634 31.798282 438.351634 30.745339 C 438.287396 29.709153 438.223158 28.781893 438.223158 27.874184 C 438.15892 27.02792 438.094682 26.245893 438.030444 25.449902 C 437.904761 24.732113 437.823766 24.078562 437.823766 23.425011 C 437.759528 22.849663 437.698083 22.26035 437.698083 21.668245 C 437.569607 20.618095 437.633845 19.514879 437.904761 18.336253 C 437.968999 17.74694 437.759528 17.28331 437.25121 16.964913 C 436.723343 16.707962 436.13403 16.501283 435.480479 16.501283 C 434.76269 16.501283 434.109139 16.707962 433.581272 17.090596 C 432.927721 17.489988 432.673562 18.143539 432.799245 19.054042 C 432.799245 21.014694 432.863483 22.386033 432.991959 23.16806 C 433.056197 24.1428 433.134399 24.938791 433.198637 25.449902 C 433.198637 26.039215 433.262875 26.821241 433.391351 27.745708 C 433.391351 28.656211 433.391351 30.02755 433.391351 31.862519 C 433.262875 35.258749 433.198637 38.129904 433.198637 40.473191 C 433.134399 42.836028 433.056197 44.732442 432.991959 46.232258 C 432.927721 47.014284 432.863483 47.667835 432.863483 48.257148 C 432.863483 48.846461 432.863483 49.357571 432.863483 49.756963 C 432.863483 50.220593 432.799245 50.603227 432.799245 50.938382 C 432.799245 51.321016 432.735007 51.591932 432.735007 51.846091 L 432.545086 53.02751 L 432.27417 53.935219 C 431.363668 51.717615 430.710117 49.231888 430.185042 46.486416 C 429.92809 45.115077 429.657174 43.679499 429.403015 42.243922 C 429.148857 40.808345 428.875147 39.30853 428.620989 37.730512 C 428.095914 34.733674 427.503808 31.734044 426.850257 28.720448 C 426.196706 25.785056 425.350442 23.103822 424.314257 20.618095 C 423.724944 19.3082 423.071393 18.464729 422.417842 18.082094 C 421.764292 17.682702 420.772794 17.554226 419.337216 17.618464 C 418.429507 17.74694 417.711718 18.001099 417.186643 18.400491 C 416.530299 18.925566 416.069462 19.707592 415.686828 20.889011 C 415.287436 22.050879 414.969039 23.695928 414.698123 25.785056 C 414.441171 27.874184 414.251251 30.552625 414.122775 33.823172 C 413.980334 37.076961 413.916096 41.065296 413.916096 45.70439 L 413.916096 62.166049 L 415.094722 62.755362 C 415.351674 62.883837 415.62259 62.948075 415.876749 62.948075 C 416.147665 62.948075 416.404617 62.883837 416.658775 62.755362 C 416.801216 62.691124 416.929692 62.629679 417.122405 62.565441 C 417.248088 62.501203 417.45756 62.436965 417.711718 62.308489 C 417.965877 60.076921 418.236793 57.730841 418.493745 55.242321 C 418.557983 53.999457 418.622221 52.756593 418.683665 51.527695 C 418.747903 50.346276 418.828899 49.103412 418.954582 47.796311 C 419.01882 46.550654 419.083058 45.321755 419.083058 44.143129 C 419.083058 42.961711 419.147295 41.718847 419.211533 40.554186 C 419.211533 39.372767 419.275771 38.25838 419.275771 37.157956 C 419.275771 36.040776 419.337216 34.987833 419.401454 33.951648 C 419.401454 31.988202 419.465692 30.156026 419.610926 28.463497 C 419.610926 26.885479 419.736608 25.592342 419.99356 24.539399 C 420.582873 25.51414 421.046503 27.092157 421.429137 29.245523 C 421.571578 30.362704 421.764292 31.527365 421.889974 32.834467 C 422.01845 34.141568 422.225129 35.512908 422.479287 37.012723 C 422.864715 40.154794 423.38979 43.489579 424.04334 47.139967 C 424.378495 49.039174 424.761129 50.938382 425.288997 52.899034 C 425.749834 54.859686 426.339147 56.806374 427.056936 58.91226 C 427.056936 59.166418 427.185411 59.487608 427.378125 59.884207 L 427.774724 60.858947 C 428.160152 62.037573 428.813702 62.8196 429.73817 63.218992 C 430.520196 63.744067 431.492143 63.93678 432.673562 63.808305 Z M 462.454809 63.344675 L 462.454809 63.47315 C 464.94333 64.126701 466.96822 64.126701 468.403797 63.601626 C 469.839375 63.090516 471.210714 61.719176 472.392133 59.487608 C 472.517816 59.230656 472.646291 58.976498 472.774767 58.641343 L 473.235604 57.459925 C 473.506521 56.677898 473.82771 55.705951 474.224309 54.524532 C 474.352785 53.999457 474.545499 53.410144 474.671182 52.834796 C 474.799657 52.245483 474.942098 51.591932 475.070574 50.938382 C 475.327525 49.628487 475.534204 48.257148 475.659887 46.82157 C 475.724124 45.642945 475.8526 44.271605 476.042521 42.77179 C 476.106759 42.054001 476.170997 41.271975 476.251992 40.473191 C 476.31623 39.693957 476.377675 38.847692 476.506151 37.93719 C 476.634627 36.230696 476.698865 34.54096 476.698865 32.705991 C 476.698865 31.862519 476.634627 31.016255 476.570389 30.156026 C 476.441913 29.309761 476.31623 28.463497 476.170997 27.53903 C 475.8526 25.910739 475.327525 24.349479 474.609737 22.768668 C 473.82771 21.335883 472.85297 20.025989 471.674344 18.861328 C 470.956555 18.336253 470.174529 18.001099 469.250062 18.001099 L 465.789594 18.001099 C 464.097065 18.143539 462.725726 18.526174 461.672783 19.182517 C 460.494157 19.961751 459.583655 20.950456 458.930104 22.115117 C 458.148077 23.425011 457.623002 24.874554 457.240368 26.438607 C 456.840976 28.128343 456.522579 29.834836 456.251663 31.527365 C 455.994711 33.298097 455.804791 35.130273 455.659557 36.948485 C 455.533874 37.875745 455.469636 38.783455 455.405399 39.629719 C 455.276923 40.473191 455.212685 41.336213 455.148447 42.118239 C 455.006006 43.025949 454.941768 43.950416 454.877531 44.860918 C 454.816086 45.768628 454.816086 46.695888 454.816086 47.539359 C 454.816086 48.449861 454.816086 49.293333 454.877531 50.220593 C 454.877531 51.128302 454.941768 52.038805 455.070244 52.963272 C 455.276923 54.58877 455.659557 56.024347 456.313108 57.270004 C 456.966659 58.577105 457.748685 59.819969 458.801628 60.920392 C 459.329496 61.576736 459.837813 62.101811 460.429919 62.436965 C 461.147708 62.883837 461.801259 63.218992 462.454809 63.344675 Z M 464.814854 60.666234 L 465.071805 60.920392 C 463.890387 59.948445 463.044122 58.831264 462.390572 57.605158 C 461.672783 56.295264 461.225911 54.988162 461.08347 53.616823 C 460.700836 51.781853 460.494157 49.756963 460.494157 47.539359 C 460.429919 46.422178 460.429919 45.321755 460.429919 44.143129 C 460.429919 43.025949 460.429919 41.84453 460.57236 40.682662 C 460.636598 39.501243 460.700836 38.384062 460.826518 37.219401 C 460.890756 36.105014 461.019232 34.987833 461.225911 33.823172 C 461.482862 31.58881 461.865497 29.56392 462.390572 27.745708 C 462.789964 25.974977 463.315039 24.477954 463.968589 23.16806 C 464.4797 21.989434 465.13325 21.207408 465.915277 20.824773 C 466.568828 21.078932 467.032458 21.397328 467.43185 21.925196 C 467.686009 22.450271 467.940167 22.978139 468.213876 23.63169 C 468.468035 24.539399 468.803189 25.385664 469.057348 26.310131 C 469.3143 27.220633 469.585216 28.064105 469.839375 28.910369 C 470.36445 30.616863 470.557163 32.451832 470.492925 34.412485 C 470.492925 37.476353 470.428687 40.473191 470.303005 43.361103 C 470.174529 46.360733 469.839375 49.293333 469.3143 52.309721 C 469.121586 53.345906 468.803189 54.398849 468.403797 55.435034 C 468.149639 55.960109 467.940167 56.423739 467.750246 56.951607 C 467.496088 57.459925 467.286616 57.923555 467.096696 58.384392 C 466.839744 58.91226 466.568828 59.359132 466.314669 59.694286 C 465.996273 60.076921 465.468405 60.412075 464.814854 60.666234 Z M 464.814854 60.666234 " stroke="#000000" stroke-width="3.348285" stroke-opacity="1" stroke-miterlimit="4"/></g><g fill="#596cc8" fill-opacity="1"><g transform="translate(2.282699, 80.373576)"><g/></g></g><g fill="#596cc8" fill-opacity="1"><g transform="translate(25.119374, 80.373576)"><g><path d="M 6.578125 -0.0898438 L 6.945312 -0.273438 C 9.867188 -1.003906 12.425781 -1.734375 14.621094 -2.46875 C 15.714844 -2.742188 16.722656 -3.105469 17.726562 -3.472656 C 18.730469 -3.835938 19.644531 -4.203125 20.558594 -4.75 C 22.386719 -5.664062 23.9375 -6.851562 25.402344 -8.316406 C 26.132812 -9.046875 26.863281 -9.867188 27.59375 -10.875 C 28.324219 -11.878906 29.054688 -12.976562 29.878906 -14.253906 C 30.242188 -14.800781 30.609375 -15.714844 31.066406 -16.996094 C 31.339844 -17.910156 31.523438 -19.097656 31.707031 -20.375 C 31.707031 -21.378906 31.707031 -22.570312 31.523438 -23.9375 C 31.339844 -25.035156 30.976562 -26.132812 30.425781 -27.230469 C 29.421875 -28.875 28.417969 -30.152344 27.503906 -31.066406 C 26.496094 -31.886719 25.582031 -32.527344 24.761719 -32.894531 C 23.664062 -33.257812 22.84375 -33.535156 22.292969 -33.625 C 21.5625 -33.625 20.925781 -33.808594 20.375 -34.171875 C 20.832031 -34.8125 21.289062 -35.453125 21.835938 -36.183594 C 22.386719 -36.914062 22.933594 -37.644531 23.574219 -38.558594 C 24.671875 -40.203125 25.675781 -42.03125 26.589844 -44.039062 C 27.320312 -46.050781 27.777344 -48.242188 27.960938 -50.621094 C 28.050781 -52.996094 27.503906 -55.554688 26.222656 -58.203125 C 25.492188 -59.664062 24.578125 -61.035156 23.480469 -62.316406 C 22.386719 -63.59375 20.925781 -64.597656 19.097656 -65.332031 C 17.269531 -66.0625 14.984375 -66.425781 12.242188 -66.425781 C 9.320312 -66.425781 6.03125 -65.878906 2.191406 -64.964844 C 1.828125 -64.875 1.460938 -64.691406 1.097656 -64.507812 C 0.730469 -64.324219 0.546875 -63.960938 0.367188 -63.410156 C 0.183594 -62.953125 0.0898438 -62.222656 0 -61.128906 C -0.0898438 -60.578125 -0.0898438 -60.03125 -0.0898438 -59.300781 L -0.0898438 -56.832031 C -0.0898438 -55.917969 -0.0898438 -54.824219 -0.0898438 -53.636719 C -0.0898438 -52.445312 0 -51.167969 0.0898438 -49.796875 C 0.0898438 -48.335938 0.183594 -46.78125 0.183594 -45.046875 C 0.183594 -43.308594 0.273438 -41.390625 0.457031 -39.382812 C 0.457031 -35.179688 0.546875 -31.613281 0.730469 -28.691406 C 0.730469 -27.136719 0.824219 -25.675781 0.824219 -24.394531 C 0.824219 -23.027344 0.914062 -21.746094 0.914062 -20.558594 L 0.914062 -14.070312 C 0.914062 -13.066406 0.824219 -12.0625 0.824219 -11.148438 C 0.824219 -10.234375 0.730469 -9.226562 0.730469 -8.316406 C 0.546875 -6.851562 0.546875 -5.574219 0.730469 -4.292969 C 0.824219 -2.925781 1.1875 -1.644531 1.828125 -0.546875 C 2.558594 0 3.289062 0.273438 4.113281 0.273438 C 5.027344 0.273438 5.847656 0.183594 6.578125 -0.0898438 Z M 7.949219 -31.796875 L 8.316406 -31.613281 C 8.039062 -32.894531 7.859375 -34.265625 7.765625 -35.542969 L 7.402344 -39.382812 C 7.21875 -40.660156 7.125 -41.9375 7.125 -43.21875 L 6.945312 -47.054688 L 6.671875 -54.730469 C 6.578125 -56.011719 6.488281 -57.199219 6.488281 -58.476562 C 6.488281 -59.757812 6.394531 -60.945312 6.394531 -62.222656 C 7.125 -62.589844 7.949219 -62.863281 8.863281 -63.046875 C 9.226562 -63.046875 9.683594 -63.136719 10.050781 -63.136719 L 11.328125 -63.136719 C 12.425781 -63.136719 13.339844 -62.953125 14.164062 -62.589844 C 14.894531 -62.132812 15.625 -61.492188 16.171875 -60.671875 C 16.722656 -59.757812 17.179688 -58.84375 17.542969 -57.839844 L 18.089844 -56.191406 C 18.273438 -55.644531 18.457031 -55.003906 18.640625 -54.457031 C 19.1875 -52.355469 19.28125 -50.253906 18.914062 -48.0625 C 18.367188 -45.777344 17.632812 -43.675781 16.628906 -41.757812 C 16.082031 -40.660156 15.441406 -39.65625 14.800781 -38.742188 C 14.164062 -37.828125 13.429688 -36.914062 12.699219 -36.089844 C 11.878906 -35.179688 11.054688 -34.445312 10.324219 -33.714844 C 9.59375 -32.984375 8.773438 -32.34375 7.949219 -31.796875 Z M 8.316406 -4.476562 L 8.679688 -5.207031 L 8.40625 -5.757812 C 8.222656 -5.847656 8.222656 -6.03125 8.222656 -6.304688 L 8.222656 -26.773438 C 8.863281 -26.953125 9.410156 -27.230469 9.960938 -27.410156 C 10.417969 -27.59375 10.875 -27.683594 11.328125 -27.867188 C 11.695312 -27.960938 12.152344 -28.050781 12.519531 -28.234375 C 12.882812 -28.324219 13.15625 -28.417969 13.523438 -28.597656 C 13.796875 -28.691406 14.070312 -28.78125 14.34375 -28.875 C 14.621094 -28.875 14.894531 -28.964844 15.257812 -29.148438 C 15.808594 -29.332031 16.445312 -29.511719 17.179688 -29.695312 C 17.816406 -29.878906 18.546875 -29.785156 19.460938 -29.238281 C 20.191406 -28.691406 20.925781 -27.867188 21.65625 -26.773438 C 22.292969 -25.675781 22.75 -24.304688 23.027344 -22.84375 C 23.207031 -21.378906 23.207031 -19.644531 22.84375 -17.816406 C 22.113281 -14.984375 21.105469 -12.699219 19.828125 -11.054688 C 18.367188 -9.226562 16.902344 -7.859375 15.441406 -6.945312 C 13.980469 -5.9375 12.519531 -5.300781 11.054688 -4.933594 C 9.59375 -4.570312 8.679688 -4.386719 8.316406 -4.476562 Z M 8.316406 -4.476562 "/></g></g></g><g fill="#596cc8" fill-opacity="1"><g transform="translate(79.849137, 80.373576)"><g><path d="M 24.671875 -0.0898438 L 24.488281 -0.546875 C 25.492188 -0.640625 26.222656 -0.824219 26.679688 -1.1875 C 27.046875 -1.554688 27.320312 -1.917969 27.320312 -2.375 C 27.320312 -2.742188 27.046875 -3.199219 26.589844 -3.5625 C 26.039062 -3.929688 25.402344 -4.113281 24.671875 -4.113281 C 22.660156 -4.203125 21.105469 -4.203125 19.828125 -4.113281 C 18.546875 -3.929688 17.453125 -3.835938 16.539062 -3.835938 C 15.988281 -3.746094 15.53125 -3.746094 15.167969 -3.746094 L 14.070312 -3.746094 C 13.339844 -3.746094 12.609375 -3.835938 11.878906 -4.203125 C 11.148438 -4.933594 10.78125 -5.664062 10.78125 -6.488281 C 10.691406 -6.851562 10.597656 -7.308594 10.597656 -7.675781 C 10.597656 -8.039062 10.597656 -8.496094 10.597656 -8.953125 C 10.417969 -17.726562 10.324219 -25.308594 10.324219 -31.523438 L 10.324219 -47.054688 C 10.324219 -51.167969 10.234375 -54.457031 10.050781 -56.832031 C 9.867188 -59.207031 9.503906 -60.945312 8.953125 -62.042969 C 8.40625 -63.136719 7.582031 -63.777344 6.578125 -63.960938 C 5.664062 -64.140625 4.292969 -64.050781 2.46875 -63.777344 C 1.734375 -63.59375 1.1875 -63.410156 0.824219 -63.230469 C 0.457031 -62.953125 0.183594 -62.316406 0 -61.402344 C -0.183594 -60.304688 -0.273438 -58.933594 -0.183594 -57.105469 C -0.0898438 -55.097656 0 -52.539062 0.0898438 -49.339844 C 0.0898438 -46.050781 0.183594 -41.9375 0.367188 -36.824219 C 0.367188 -31.707031 0.367188 -25.582031 0.367188 -18.457031 C 0.183594 -13.339844 0.457031 -9.410156 1.1875 -6.761719 C 1.828125 -4.019531 3.015625 -2.191406 4.84375 -1.097656 C 6.671875 0 9.226562 0.546875 12.335938 0.457031 C 15.441406 0.457031 19.554688 0.273438 24.671875 -0.0898438 Z M 24.671875 -0.0898438 "/></g></g></g><g fill="#596cc8" fill-opacity="1"><g transform="translate(130.010477, 80.373576)"><g><path d="M 25.402344 -2.925781 L 25.308594 -3.5625 C 26.316406 -4.75 27.136719 -6.214844 27.777344 -8.039062 C 28.050781 -8.953125 28.324219 -9.867188 28.597656 -10.78125 C 28.78125 -11.695312 29.054688 -12.699219 29.238281 -13.796875 C 29.605469 -15.808594 29.878906 -17.816406 30.0625 -19.644531 C 30.242188 -21.472656 30.335938 -23.207031 30.335938 -24.851562 L 30.335938 -42.121094 C 30.335938 -43.402344 30.242188 -44.589844 30.242188 -45.867188 C 30.242188 -47.054688 30.152344 -48.242188 30.152344 -49.433594 C 29.96875 -51.625 29.878906 -53.726562 29.878906 -55.738281 C 29.695312 -57.5625 29.605469 -59.027344 29.605469 -60.121094 C 29.421875 -61.402344 29.054688 -62.132812 28.691406 -62.496094 C 28.140625 -62.863281 27.410156 -63.136719 26.40625 -63.230469 C 25.675781 -63.230469 25.035156 -63.230469 24.488281 -63.230469 C 23.757812 -63.046875 23.117188 -62.773438 22.570312 -62.40625 C 22.203125 -61.675781 22.019531 -60.03125 22.113281 -57.289062 C 22.113281 -55.828125 22.203125 -54.367188 22.292969 -52.722656 C 22.292969 -51.078125 22.386719 -49.339844 22.570312 -47.421875 C 22.75 -43.585938 22.933594 -39.472656 23.117188 -35.085938 C 23.300781 -30.699219 23.300781 -26.496094 23.117188 -22.476562 C 22.933594 -18.457031 22.476562 -14.894531 21.746094 -11.785156 C 21.015625 -8.679688 19.828125 -6.578125 18.273438 -5.390625 C 15.898438 -6.488281 14.4375 -8.316406 13.886719 -10.875 C 13.066406 -14.164062 12.335938 -17.085938 11.785156 -19.734375 C 11.238281 -22.292969 10.78125 -24.671875 10.417969 -26.863281 C 9.683594 -31.066406 9.136719 -34.628906 8.773438 -37.371094 C 8.40625 -40.113281 8.222656 -42.488281 8.222656 -44.316406 C 8.222656 -45.230469 8.222656 -46.050781 8.222656 -46.875 C 8.222656 -47.695312 8.316406 -48.519531 8.40625 -49.339844 C 8.40625 -50.070312 8.496094 -50.894531 8.496094 -51.714844 C 8.496094 -52.539062 8.589844 -53.359375 8.589844 -54.273438 C 8.589844 -55.917969 8.40625 -58.203125 8.039062 -61.128906 C 7.859375 -62.042969 7.582031 -62.589844 7.035156 -62.953125 C 6.394531 -63.230469 5.574219 -63.410156 4.660156 -63.410156 C 3.65625 -63.410156 2.925781 -63.230469 2.558594 -63.046875 C 2.011719 -62.679688 1.644531 -62.222656 1.460938 -61.675781 C 1.097656 -60.945312 0.914062 -60.121094 0.914062 -59.207031 C 0.730469 -58.113281 0.640625 -56.832031 0.640625 -55.371094 C 0.273438 -51.898438 0.0898438 -48.882812 0.0898438 -46.324219 C 0 -43.765625 0 -41.390625 0.0898438 -39.382812 C 0.0898438 -38.285156 0.183594 -37.28125 0.183594 -36.273438 C 0.183594 -35.269531 0.273438 -34.265625 0.457031 -33.351562 C 0.640625 -31.339844 0.914062 -29.332031 1.277344 -27.320312 C 1.644531 -25.035156 2.101562 -22.660156 2.648438 -20.285156 C 2.925781 -19.003906 3.199219 -17.542969 3.472656 -15.988281 C 3.746094 -14.4375 4.019531 -12.792969 4.386719 -11.054688 C 4.75 -8.496094 5.847656 -6.304688 7.675781 -4.386719 C 9.320312 -2.375 11.238281 -1.003906 13.429688 -0.273438 C 15.625 0.640625 17.726562 0.824219 19.917969 0.457031 C 22.113281 0.0898438 23.9375 -1.003906 25.402344 -2.925781 Z M 25.402344 -2.925781 "/></g></g></g><g fill="#596cc8" fill-opacity="1"><g transform="translate(183.095611, 80.373576)"><g><path d="M 7.035156 0.273438 L 8.039062 -0.0898438 C 9.683594 -0.183594 11.148438 -0.273438 12.425781 -0.367188 C 13.707031 -0.457031 14.800781 -0.546875 15.808594 -0.730469 C 17.632812 -0.914062 19.097656 -1.097656 20.191406 -1.277344 C 21.289062 -1.460938 21.929688 -1.644531 22.292969 -1.917969 C 22.660156 -2.191406 23.027344 -2.558594 23.300781 -3.015625 C 22.75 -3.835938 21.929688 -4.386719 21.015625 -4.660156 C 20.101562 -4.84375 19.003906 -5.027344 17.726562 -5.027344 C 17.085938 -5.027344 16.445312 -4.933594 15.898438 -4.933594 C 15.351562 -4.933594 14.710938 -4.84375 14.070312 -4.84375 C 12.792969 -4.660156 11.605469 -4.660156 10.597656 -4.84375 C 10.417969 -5.207031 10.324219 -5.390625 10.324219 -5.574219 C 10.140625 -5.757812 10.140625 -5.9375 10.140625 -6.121094 L 10.140625 -29.238281 C 10.140625 -29.605469 10.140625 -29.878906 10.234375 -29.96875 C 10.234375 -29.96875 10.324219 -30.242188 10.507812 -30.792969 C 11.238281 -30.976562 12.152344 -31.15625 13.25 -31.15625 L 15.988281 -31.15625 C 16.722656 -31.15625 17.632812 -31.25 18.730469 -31.613281 C 19.554688 -31.796875 20.375 -32.34375 21.289062 -33.257812 C 20.558594 -33.898438 19.644531 -34.355469 18.640625 -34.722656 C 17.542969 -34.996094 16.628906 -35.179688 15.898438 -35.179688 L 13.15625 -35.179688 C 12.152344 -35.179688 11.238281 -35.269531 10.507812 -35.453125 C 10.324219 -35.910156 10.140625 -36.730469 9.960938 -38.011719 C 9.777344 -39.289062 9.59375 -40.75 9.410156 -42.394531 C 9.226562 -43.21875 9.136719 -44.039062 9.136719 -44.953125 C 9.136719 -45.867188 9.046875 -46.78125 9.046875 -47.789062 C 8.863281 -49.613281 8.773438 -51.441406 8.773438 -53.269531 C 8.679688 -54.089844 8.589844 -54.914062 8.589844 -55.644531 C 8.589844 -56.375 8.589844 -57.015625 8.589844 -57.746094 L 8.589844 -59.390625 C 8.589844 -59.757812 8.589844 -60.121094 8.679688 -60.394531 C 10.507812 -60.761719 11.96875 -60.945312 13.15625 -60.945312 C 14.164062 -60.851562 15.167969 -60.761719 16.265625 -60.671875 C 17.179688 -60.488281 18.089844 -60.578125 18.824219 -60.761719 C 19.554688 -60.945312 20.558594 -61.492188 21.835938 -62.589844 C 21.378906 -63.230469 20.832031 -63.6875 20.191406 -64.050781 C 19.460938 -64.324219 18.824219 -64.507812 18.183594 -64.597656 C 17.726562 -64.597656 17.269531 -64.691406 16.722656 -64.691406 C 16.171875 -64.691406 15.53125 -64.78125 14.894531 -64.964844 C 14.164062 -65.054688 13.523438 -65.148438 12.792969 -65.148438 C 12.0625 -65.148438 11.238281 -65.238281 10.417969 -65.332031 C 9.503906 -65.332031 8.679688 -65.332031 7.859375 -65.332031 C 6.945312 -65.332031 6.121094 -65.238281 5.207031 -65.148438 C 3.378906 -64.964844 1.554688 -64.597656 -0.273438 -64.050781 C -0.457031 -63.046875 -0.546875 -62.132812 -0.640625 -61.21875 C -0.730469 -60.304688 -0.730469 -59.484375 -0.730469 -58.660156 L -0.730469 -56.011719 C -0.730469 -55.097656 -0.730469 -54.183594 -0.640625 -53.179688 C -0.640625 -52.082031 -0.546875 -50.984375 -0.546875 -49.886719 C -0.546875 -48.792969 -0.457031 -47.511719 -0.273438 -46.234375 C -0.0898438 -43.492188 0.0898438 -40.203125 0.273438 -36.546875 C 0.457031 -32.710938 0.640625 -28.140625 0.824219 -22.84375 C 0.914062 -20.101562 1.003906 -17.179688 1.097656 -14.070312 C 1.097656 -10.964844 1.1875 -7.582031 1.277344 -3.929688 C 1.277344 -3.472656 1.277344 -3.105469 1.277344 -2.742188 C 1.277344 -2.375 1.371094 -2.101562 1.460938 -1.828125 C 1.460938 -1.277344 1.734375 -0.824219 2.285156 -0.457031 C 2.742188 0 3.289062 0.273438 4.019531 0.273438 C 4.75 0.457031 5.757812 0.457031 7.035156 0.273438 Z M 7.035156 0.273438 "/></g></g></g><g fill="#596cc8" fill-opacity="1"><g transform="translate(229.328098, 80.373576)"><g/></g></g><g fill="#596cc8" fill-opacity="1"><g transform="translate(252.170236, 80.373576)"><g><path d="M 24.671875 -0.0898438 L 24.488281 -0.546875 C 25.492188 -0.640625 26.222656 -0.824219 26.679688 -1.1875 C 27.046875 -1.554688 27.320312 -1.917969 27.320312 -2.375 C 27.320312 -2.742188 27.046875 -3.199219 26.589844 -3.5625 C 26.039062 -3.929688 25.402344 -4.113281 24.671875 -4.113281 C 22.660156 -4.203125 21.105469 -4.203125 19.828125 -4.113281 C 18.546875 -3.929688 17.453125 -3.835938 16.539062 -3.835938 C 15.988281 -3.746094 15.53125 -3.746094 15.167969 -3.746094 L 14.070312 -3.746094 C 13.339844 -3.746094 12.609375 -3.835938 11.878906 -4.203125 C 11.148438 -4.933594 10.78125 -5.664062 10.78125 -6.488281 C 10.691406 -6.851562 10.597656 -7.308594 10.597656 -7.675781 C 10.597656 -8.039062 10.597656 -8.496094 10.597656 -8.953125 C 10.417969 -17.726562 10.324219 -25.308594 10.324219 -31.523438 L 10.324219 -47.054688 C 10.324219 -51.167969 10.234375 -54.457031 10.050781 -56.832031 C 9.867188 -59.207031 9.503906 -60.945312 8.953125 -62.042969 C 8.40625 -63.136719 7.582031 -63.777344 6.578125 -63.960938 C 5.664062 -64.140625 4.292969 -64.050781 2.46875 -63.777344 C 1.734375 -63.59375 1.1875 -63.410156 0.824219 -63.230469 C 0.457031 -62.953125 0.183594 -62.316406 0 -61.402344 C -0.183594 -60.304688 -0.273438 -58.933594 -0.183594 -57.105469 C -0.0898438 -55.097656 0 -52.539062 0.0898438 -49.339844 C 0.0898438 -46.050781 0.183594 -41.9375 0.367188 -36.824219 C 0.367188 -31.707031 0.367188 -25.582031 0.367188 -18.457031 C 0.183594 -13.339844 0.457031 -9.410156 1.1875 -6.761719 C 1.828125 -4.019531 3.015625 -2.191406 4.84375 -1.097656 C 6.671875 0 9.226562 0.546875 12.335938 0.457031 C 15.441406 0.457031 19.554688 0.273438 24.671875 -0.0898438 Z M 24.671875 -0.0898438 "/></g></g></g><g fill="#596cc8" fill-opacity="1"><g transform="translate(302.331576, 80.373576)"><g><path d="M 7.125 0.0898438 L 7.21875 0 C 8.132812 0 8.953125 -0.183594 9.503906 -0.546875 C 10.050781 -0.730469 10.417969 -1.277344 10.597656 -2.191406 C 10.78125 -3.105469 10.78125 -4.203125 10.78125 -5.480469 C 10.597656 -6.851562 10.507812 -8.589844 10.507812 -10.78125 C 10.234375 -14.800781 10.050781 -18.367188 9.867188 -21.65625 C 9.683594 -24.945312 9.59375 -27.867188 9.503906 -30.425781 C 9.320312 -32.984375 9.226562 -35.269531 9.226562 -37.371094 C 9.136719 -39.472656 9.046875 -41.300781 9.046875 -42.945312 C 8.953125 -44.496094 8.863281 -45.867188 8.863281 -47.148438 C 8.863281 -48.425781 8.863281 -49.433594 8.863281 -50.34375 L 8.863281 -54.730469 C 8.863281 -55.28125 8.773438 -55.917969 8.773438 -56.46875 C 8.773438 -57.015625 8.679688 -57.65625 8.679688 -58.203125 C 8.496094 -59.300781 8.316406 -60.851562 8.132812 -62.773438 C 7.949219 -64.050781 7.402344 -64.964844 6.578125 -65.511719 C 5.664062 -66.0625 4.84375 -66.335938 3.929688 -66.335938 C 3.015625 -66.335938 2.191406 -66.0625 1.460938 -65.605469 C 0.640625 -65.054688 0.183594 -64.417969 0.183594 -63.6875 C 0.0898438 -63.410156 0.0898438 -63.046875 0.0898438 -62.679688 L 0.0898438 -55.097656 C 0.0898438 -54.183594 0.0898438 -53.269531 0.0898438 -52.171875 C 0.0898438 -51.078125 0.183594 -49.796875 0.273438 -48.519531 C 0.273438 -45.777344 0.367188 -42.488281 0.546875 -38.648438 C 0.546875 -37.460938 0.640625 -36.367188 0.640625 -35.453125 L 0.640625 -25.949219 C 0.640625 -25.21875 0.640625 -24.488281 0.730469 -23.757812 C 0.730469 -23.027344 0.824219 -22.203125 0.824219 -21.378906 C 0.824219 -20.46875 0.914062 -19.554688 1.097656 -18.640625 C 1.277344 -16.8125 1.460938 -14.527344 1.644531 -11.878906 C 1.828125 -9.410156 2.101562 -6.394531 2.46875 -2.742188 C 2.558594 -1.734375 2.832031 -1.003906 3.378906 -0.546875 C 3.929688 0 5.117188 0.273438 7.125 0.0898438 Z M 7.125 0.0898438 "/></g></g></g><g fill="#596cc8" fill-opacity="1"><g transform="translate(335.955212, 80.373576)"><g><path d="M 26.222656 -0.546875 L 26.316406 -0.0898438 C 28.140625 -0.273438 29.785156 -0.730469 31.25 -1.460938 C 32.527344 -2.101562 33.625 -2.925781 34.628906 -3.929688 C 35.542969 -4.84375 36.273438 -5.847656 36.730469 -6.945312 C 37.097656 -8.039062 37.460938 -9.046875 37.828125 -9.960938 C 38.011719 -10.875 38.191406 -11.695312 38.375 -12.425781 C 38.375 -13.15625 38.46875 -13.613281 38.648438 -13.796875 C 38.101562 -14.710938 37.371094 -15.257812 36.546875 -15.441406 C 35.632812 -15.441406 34.8125 -15.441406 34.082031 -15.441406 C 33.257812 -15.351562 32.621094 -14.984375 32.164062 -14.4375 C 31.613281 -13.707031 31.15625 -13.066406 30.882812 -12.519531 C 30.425781 -11.605469 30.0625 -10.875 29.878906 -10.140625 C 29.511719 -9.226562 29.148438 -8.40625 28.78125 -7.765625 C 28.234375 -6.945312 27.683594 -6.304688 27.046875 -5.847656 C 26.222656 -5.207031 25.308594 -4.84375 24.304688 -4.84375 C 21.015625 -6.03125 18.457031 -7.949219 16.445312 -10.597656 C 14.4375 -13.15625 12.882812 -16.171875 11.785156 -19.644531 C 10.691406 -22.933594 10.050781 -26.496094 9.867188 -30.335938 C 9.683594 -32.164062 9.683594 -34.082031 9.777344 -35.910156 C 9.777344 -37.734375 9.960938 -39.5625 10.234375 -41.390625 C 10.597656 -45.046875 11.328125 -48.425781 12.425781 -51.535156 C 13.429688 -54.640625 14.621094 -57.105469 16.082031 -59.027344 C 17.542969 -60.945312 19.097656 -62.132812 20.832031 -62.589844 C 22.570312 -63.046875 24.304688 -62.496094 26.132812 -60.851562 C 26.496094 -60.488281 26.773438 -60.214844 27.046875 -59.941406 C 27.320312 -59.574219 27.59375 -59.300781 27.867188 -59.027344 C 28.234375 -58.476562 28.691406 -58.019531 29.238281 -57.65625 C 29.605469 -57.289062 30.0625 -57.015625 30.609375 -56.832031 C 31.066406 -56.648438 31.707031 -56.558594 32.527344 -56.648438 C 33.808594 -56.648438 34.445312 -57.199219 34.445312 -58.292969 C 34.445312 -59.207031 33.988281 -60.304688 33.167969 -61.585938 C 32.253906 -62.679688 31.066406 -63.777344 29.605469 -64.875 C 27.960938 -65.789062 26.316406 -66.335938 24.671875 -66.519531 C 24.03125 -66.519531 23.390625 -66.609375 22.75 -66.609375 L 20.648438 -66.609375 C 19.097656 -66.609375 17.542969 -66.425781 16.082031 -66.0625 C 14.4375 -65.695312 12.976562 -65.054688 11.511719 -64.140625 C 10.050781 -63.230469 8.679688 -61.859375 7.492188 -60.121094 C 5.117188 -56.648438 3.289062 -52.722656 2.011719 -48.335938 C 0.640625 -43.765625 -0.0898438 -39.289062 -0.0898438 -34.902344 C -0.183594 -30.335938 0.273438 -25.859375 1.277344 -21.65625 C 2.285156 -17.269531 3.835938 -13.523438 6.03125 -10.324219 C 8.222656 -7.035156 10.964844 -4.476562 14.34375 -2.648438 C 17.726562 -0.824219 21.65625 -0.0898438 26.222656 -0.546875 Z M 26.222656 -0.546875 "/></g></g></g><g fill="#596cc8" fill-opacity="1"><g transform="translate(397.263538, 80.373576)"><g><path d="M 10.78125 -0.914062 L 10.78125 -0.730469 C 14.253906 0.183594 17.085938 0.183594 19.097656 -0.546875 C 21.105469 -1.277344 23.027344 -3.199219 24.671875 -6.304688 C 24.851562 -6.671875 25.035156 -7.035156 25.21875 -7.492188 L 25.859375 -9.136719 C 26.222656 -10.234375 26.679688 -11.605469 27.230469 -13.25 C 27.410156 -13.980469 27.683594 -14.800781 27.867188 -15.625 C 28.050781 -16.445312 28.234375 -17.359375 28.417969 -18.273438 C 28.78125 -20.101562 29.054688 -22.019531 29.238281 -24.03125 C 29.332031 -25.675781 29.511719 -27.59375 29.785156 -29.695312 C 29.878906 -30.699219 29.96875 -31.796875 30.0625 -32.894531 C 30.152344 -33.988281 30.242188 -35.179688 30.425781 -36.457031 C 30.609375 -38.832031 30.699219 -41.207031 30.699219 -43.765625 C 30.699219 -44.953125 30.609375 -46.140625 30.519531 -47.332031 C 30.335938 -48.519531 30.152344 -49.707031 29.96875 -50.984375 C 29.511719 -53.269531 28.78125 -55.460938 27.777344 -57.65625 C 26.679688 -59.664062 25.308594 -61.492188 23.664062 -63.136719 C 22.660156 -63.867188 21.5625 -64.324219 20.285156 -64.324219 L 15.441406 -64.324219 C 13.066406 -64.140625 11.148438 -63.59375 9.683594 -62.679688 C 8.039062 -61.585938 6.761719 -60.214844 5.847656 -58.570312 C 4.75 -56.742188 4.019531 -54.730469 3.472656 -52.539062 C 2.925781 -50.164062 2.46875 -47.789062 2.101562 -45.410156 C 1.734375 -42.945312 1.460938 -40.386719 1.277344 -37.828125 C 1.097656 -36.546875 1.003906 -35.269531 0.914062 -34.082031 C 0.730469 -32.894531 0.640625 -31.707031 0.546875 -30.609375 C 0.367188 -29.332031 0.273438 -28.050781 0.183594 -26.773438 C 0.0898438 -25.492188 0.0898438 -24.214844 0.0898438 -23.027344 C 0.0898438 -21.746094 0.0898438 -20.558594 0.183594 -19.28125 C 0.183594 -18 0.273438 -16.722656 0.457031 -15.441406 C 0.730469 -13.15625 1.277344 -11.148438 2.191406 -9.410156 C 3.105469 -7.582031 4.203125 -5.847656 5.664062 -4.292969 C 6.394531 -3.378906 7.125 -2.648438 7.949219 -2.191406 C 8.953125 -1.554688 9.867188 -1.097656 10.78125 -0.914062 Z M 14.070312 -4.660156 L 14.4375 -4.292969 C 12.792969 -5.664062 11.605469 -7.21875 10.691406 -8.953125 C 9.683594 -10.78125 9.046875 -12.609375 8.863281 -14.527344 C 8.316406 -17.085938 8.039062 -19.917969 8.039062 -23.027344 C 7.949219 -24.578125 7.949219 -26.132812 7.949219 -27.777344 C 7.949219 -29.332031 7.949219 -30.976562 8.132812 -32.621094 C 8.222656 -34.265625 8.316406 -35.816406 8.496094 -37.460938 C 8.589844 -39.015625 8.773438 -40.570312 9.046875 -42.214844 C 9.410156 -45.320312 9.960938 -48.152344 10.691406 -50.710938 C 11.238281 -53.179688 11.96875 -55.28125 12.882812 -57.105469 C 13.613281 -58.75 14.527344 -59.847656 15.625 -60.394531 C 16.539062 -60.03125 17.179688 -59.574219 17.726562 -58.84375 C 18.089844 -58.113281 18.457031 -57.382812 18.824219 -56.46875 C 19.1875 -55.1875 19.644531 -54 20.011719 -52.722656 C 20.375 -51.441406 20.742188 -50.253906 21.105469 -49.066406 C 21.835938 -46.691406 22.113281 -44.132812 22.019531 -41.390625 C 22.019531 -37.097656 21.929688 -32.894531 21.746094 -28.875 C 21.5625 -24.671875 21.105469 -20.558594 20.375 -16.355469 C 20.101562 -14.894531 19.644531 -13.429688 19.097656 -11.96875 C 18.730469 -11.238281 18.457031 -10.597656 18.183594 -9.867188 C 17.816406 -9.136719 17.542969 -8.496094 17.269531 -7.859375 C 16.902344 -7.125 16.539062 -6.488281 16.171875 -6.03125 C 15.714844 -5.480469 14.984375 -5.027344 14.070312 -4.660156 Z M 14.070312 -4.660156 "/></g></g></g><g fill="#596cc8" fill-opacity="1"><g transform="translate(450.988242, 80.373576)"><g><path d="M 26.222656 -0.0898438 L 26.316406 -0.546875 C 26.496094 -0.546875 26.773438 -0.730469 27.136719 -1.097656 L 28.050781 -2.011719 C 25.859375 -5.480469 23.757812 -8.863281 21.746094 -12.152344 C 20.648438 -13.796875 19.554688 -15.351562 18.457031 -16.996094 C 17.269531 -18.640625 16.082031 -20.191406 14.894531 -21.835938 C 15.078125 -22.019531 15.351562 -22.292969 15.53125 -22.476562 C 15.714844 -22.660156 15.898438 -22.933594 16.082031 -23.207031 C 16.265625 -23.390625 16.445312 -23.664062 16.628906 -23.847656 L 17.179688 -24.394531 L 19.644531 -26.863281 L 22.113281 -29.332031 C 24.304688 -31.523438 25.949219 -33.988281 27.046875 -36.730469 C 28.140625 -39.289062 28.78125 -41.9375 28.964844 -44.679688 C 29.148438 -47.238281 28.875 -49.796875 28.234375 -52.355469 C 27.59375 -54.730469 26.589844 -56.925781 25.21875 -58.75 C 23.757812 -60.578125 22.113281 -62.042969 20.285156 -63.136719 C 18.273438 -64.234375 16.082031 -64.78125 13.707031 -64.78125 C 9.503906 -64.78125 6.488281 -64.597656 4.660156 -64.234375 C 2.648438 -63.867188 1.371094 -63.046875 0.824219 -61.765625 C 0.0898438 -60.394531 -0.0898438 -58.476562 0.0898438 -56.011719 C 0.273438 -53.453125 0.367188 -49.980469 0.367188 -45.777344 C 0.367188 -42.121094 0.367188 -38.46875 0.367188 -34.8125 C 0.183594 -31.15625 0.183594 -27.503906 0.367188 -23.847656 C 0.367188 -17.816406 0.546875 -13.25 0.914062 -10.140625 C 1.097656 -6.945312 1.460938 -4.660156 2.011719 -3.199219 C 2.46875 -1.734375 2.925781 -0.914062 3.472656 -0.730469 C 3.746094 -0.546875 4.019531 -0.457031 4.292969 -0.457031 C 4.570312 -0.367188 4.84375 -0.273438 5.207031 -0.273438 C 6.945312 -0.0898438 8.132812 -0.273438 8.863281 -0.640625 C 9.59375 -1.003906 10.050781 -1.644531 10.234375 -2.648438 C 10.417969 -3.5625 10.417969 -4.933594 10.234375 -6.578125 C 10.050781 -7.402344 9.960938 -8.316406 9.960938 -9.320312 C 9.867188 -10.324219 9.777344 -11.421875 9.777344 -12.699219 C 9.777344 -12.699219 9.867188 -12.792969 10.050781 -12.976562 C 10.234375 -12.976562 10.324219 -13.15625 10.417969 -13.339844 L 11.785156 -11.96875 C 11.96875 -11.695312 12.242188 -11.421875 12.425781 -11.148438 C 12.609375 -10.78125 12.882812 -10.507812 13.25 -10.140625 C 13.523438 -9.777344 13.796875 -9.320312 14.070312 -8.863281 C 14.34375 -8.40625 14.621094 -7.949219 14.984375 -7.402344 C 15.257812 -6.851562 15.625 -6.214844 15.988281 -5.574219 C 16.355469 -4.84375 16.722656 -4.113281 17.179688 -3.378906 C 18.183594 -1.554688 19.460938 -0.457031 21.015625 0.0898438 C 22.476562 0.640625 24.214844 0.640625 26.222656 -0.0898438 Z M 9.503906 -26.039062 L 9.410156 -25.949219 C 8.953125 -27.230469 8.679688 -29.148438 8.679688 -31.707031 C 8.589844 -32.984375 8.496094 -34.445312 8.496094 -35.910156 C 8.496094 -37.371094 8.496094 -38.925781 8.496094 -40.570312 C 8.496094 -42.214844 8.40625 -43.859375 8.40625 -45.59375 C 8.40625 -47.332031 8.316406 -49.066406 8.316406 -50.894531 C 8.132812 -54.457031 7.949219 -57.839844 7.765625 -60.945312 C 9.960938 -61.308594 11.878906 -61.128906 13.523438 -60.488281 C 14.984375 -59.847656 16.355469 -58.660156 17.453125 -56.925781 C 18.730469 -54.914062 19.644531 -52.722656 20.011719 -50.34375 C 20.375 -48.152344 20.375 -45.867188 20.101562 -43.675781 C 19.734375 -41.390625 19.1875 -39.289062 18.457031 -37.460938 C 17.542969 -35.453125 16.628906 -33.714844 15.714844 -32.253906 C 14.621094 -30.609375 13.613281 -29.332031 12.519531 -28.234375 C 11.421875 -27.136719 10.417969 -26.40625 9.503906 -26.039062 Z M 9.503906 -26.039062 "/></g></g></g><g fill="#596cc8" fill-opacity="1"><g transform="translate(502.976976, 80.373576)"><g><path d="M 5.117188 0.914062 L 5.574219 -0.183594 C 6.945312 0.183594 7.949219 0.183594 8.679688 0 C 9.410156 -0.183594 9.960938 -0.457031 10.417969 -0.914062 C 10.875 -1.371094 11.148438 -1.828125 11.238281 -2.375 C 11.328125 -2.925781 11.328125 -3.472656 11.238281 -4.203125 C 11.238281 -4.292969 11.148438 -4.570312 11.148438 -4.933594 C 11.148438 -5.300781 11.054688 -5.757812 11.054688 -6.394531 C 10.964844 -7.492188 10.875 -8.863281 10.78125 -10.691406 C 10.691406 -11.511719 10.597656 -12.335938 10.597656 -13.25 C 10.597656 -14.164062 10.507812 -15.078125 10.507812 -16.082031 C 10.417969 -16.996094 10.324219 -18 10.324219 -18.914062 C 10.324219 -19.828125 10.324219 -20.832031 10.324219 -21.746094 L 10.324219 -26.679688 C 10.324219 -28.140625 10.417969 -29.238281 10.597656 -29.96875 C 11.238281 -30.242188 12.0625 -30.425781 13.066406 -30.609375 C 13.523438 -30.609375 13.980469 -30.699219 14.34375 -30.699219 L 15.625 -30.699219 C 16.539062 -30.699219 17.359375 -30.792969 18.089844 -31.066406 C 18.824219 -31.25 19.554688 -31.796875 20.285156 -32.710938 C 20.101562 -33.441406 19.734375 -33.898438 19.28125 -34.265625 C 18.730469 -34.445312 18.089844 -34.628906 17.359375 -34.8125 C 16.902344 -34.8125 16.445312 -34.902344 15.988281 -34.902344 L 12.152344 -34.902344 C 11.421875 -34.902344 10.597656 -34.902344 9.777344 -34.996094 L 8.132812 -58.203125 C 9.410156 -58.292969 10.597656 -58.386719 11.695312 -58.476562 C 12.699219 -58.570312 13.613281 -58.660156 14.4375 -58.84375 C 16.082031 -59.027344 17.269531 -59.207031 18.183594 -59.390625 C 19.003906 -59.574219 19.644531 -59.757812 20.101562 -60.121094 C 20.46875 -60.394531 20.832031 -60.851562 21.105469 -61.492188 C 20.832031 -61.675781 20.648438 -61.859375 20.46875 -62.042969 C 20.101562 -62.222656 19.734375 -62.40625 19.554688 -62.589844 C 19.003906 -62.773438 18.546875 -62.953125 18.183594 -63.046875 C 17.632812 -63.046875 16.902344 -63.046875 15.988281 -63.046875 C 13.886719 -62.863281 12.0625 -62.773438 10.597656 -62.679688 C 9.136719 -62.589844 7.859375 -62.496094 6.851562 -62.40625 C 5.757812 -62.222656 4.933594 -62.132812 4.203125 -62.132812 C 3.472656 -62.042969 2.925781 -61.949219 2.558594 -61.949219 C 1.734375 -61.859375 1.1875 -61.675781 0.914062 -61.492188 C 0.730469 -61.308594 0.273438 -61.128906 -0.457031 -60.851562 C -0.457031 -60.488281 -0.367188 -60.214844 -0.367188 -59.941406 C -0.367188 -59.574219 -0.273438 -59.300781 -0.183594 -59.027344 C -0.183594 -58.660156 -0.0898438 -58.386719 -0.0898438 -58.203125 L -0.0898438 -57.472656 C 0.0898438 -52.539062 0.273438 -47.96875 0.457031 -43.859375 C 0.546875 -39.65625 0.640625 -35.910156 0.824219 -32.621094 C 0.914062 -29.238281 1.003906 -26.222656 1.097656 -23.480469 C 1.097656 -20.742188 1.1875 -18.273438 1.277344 -16.171875 C 1.277344 -11.785156 1.371094 -8.496094 1.554688 -6.304688 C 1.554688 -3.929688 1.734375 -2.285156 2.101562 -1.371094 C 2.375 -0.273438 2.742188 0.273438 3.199219 0.457031 C 3.746094 0.730469 4.386719 0.914062 5.117188 0.914062 Z M 5.117188 0.914062 "/></g></g></g><g fill="#596cc8" fill-opacity="1"><g transform="translate(547.382068, 80.373576)"><g><path d="M 7.125 0.0898438 L 7.21875 0 C 8.132812 0 8.953125 -0.183594 9.503906 -0.546875 C 10.050781 -0.730469 10.417969 -1.277344 10.597656 -2.191406 C 10.78125 -3.105469 10.78125 -4.203125 10.78125 -5.480469 C 10.597656 -6.851562 10.507812 -8.589844 10.507812 -10.78125 C 10.234375 -14.800781 10.050781 -18.367188 9.867188 -21.65625 C 9.683594 -24.945312 9.59375 -27.867188 9.503906 -30.425781 C 9.320312 -32.984375 9.226562 -35.269531 9.226562 -37.371094 C 9.136719 -39.472656 9.046875 -41.300781 9.046875 -42.945312 C 8.953125 -44.496094 8.863281 -45.867188 8.863281 -47.148438 C 8.863281 -48.425781 8.863281 -49.433594 8.863281 -50.34375 L 8.863281 -54.730469 C 8.863281 -55.28125 8.773438 -55.917969 8.773438 -56.46875 C 8.773438 -57.015625 8.679688 -57.65625 8.679688 -58.203125 C 8.496094 -59.300781 8.316406 -60.851562 8.132812 -62.773438 C 7.949219 -64.050781 7.402344 -64.964844 6.578125 -65.511719 C 5.664062 -66.0625 4.84375 -66.335938 3.929688 -66.335938 C 3.015625 -66.335938 2.191406 -66.0625 1.460938 -65.605469 C 0.640625 -65.054688 0.183594 -64.417969 0.183594 -63.6875 C 0.0898438 -63.410156 0.0898438 -63.046875 0.0898438 -62.679688 L 0.0898438 -55.097656 C 0.0898438 -54.183594 0.0898438 -53.269531 0.0898438 -52.171875 C 0.0898438 -51.078125 0.183594 -49.796875 0.273438 -48.519531 C 0.273438 -45.777344 0.367188 -42.488281 0.546875 -38.648438 C 0.546875 -37.460938 0.640625 -36.367188 0.640625 -35.453125 L 0.640625 -25.949219 C 0.640625 -25.21875 0.640625 -24.488281 0.730469 -23.757812 C 0.730469 -23.027344 0.824219 -22.203125 0.824219 -21.378906 C 0.824219 -20.46875 0.914062 -19.554688 1.097656 -18.640625 C 1.277344 -16.8125 1.460938 -14.527344 1.644531 -11.878906 C 1.828125 -9.410156 2.101562 -6.394531 2.46875 -2.742188 C 2.558594 -1.734375 2.832031 -1.003906 3.378906 -0.546875 C 3.929688 0 5.117188 0.273438 7.125 0.0898438 Z M 7.125 0.0898438 "/></g></g></g><g fill="#596cc8" fill-opacity="1"><g transform="translate(581.005726, 80.373576)"><g><path d="M 25.582031 -0.273438 L 26.496094 0 C 27.777344 0 28.691406 -0.183594 29.332031 -0.640625 C 29.878906 -1.003906 30.335938 -1.828125 30.699219 -3.105469 C 31.066406 -4.933594 31.433594 -7.402344 31.796875 -10.507812 L 32.164062 -15.257812 C 32.253906 -16.8125 32.34375 -18.457031 32.527344 -20.101562 C 32.710938 -23.390625 32.894531 -26.496094 33.078125 -29.421875 C 33.167969 -30.882812 33.257812 -32.070312 33.257812 -33.167969 C 33.257812 -34.171875 33.351562 -34.996094 33.441406 -35.726562 C 33.535156 -37.828125 33.625 -39.746094 33.625 -41.574219 C 33.625 -43.402344 33.535156 -45.046875 33.535156 -46.507812 C 33.441406 -47.96875 33.351562 -49.25 33.351562 -50.527344 C 33.257812 -51.714844 33.167969 -52.8125 33.078125 -53.910156 C 32.894531 -54.914062 32.800781 -55.828125 32.800781 -56.742188 C 32.710938 -57.5625 32.621094 -58.386719 32.621094 -59.207031 C 32.4375 -60.671875 32.527344 -62.222656 32.894531 -63.867188 C 32.984375 -64.691406 32.710938 -65.332031 31.980469 -65.789062 C 31.25 -66.152344 30.425781 -66.425781 29.511719 -66.425781 C 28.507812 -66.425781 27.59375 -66.152344 26.863281 -65.605469 C 25.949219 -65.054688 25.582031 -64.140625 25.765625 -62.863281 C 25.765625 -60.121094 25.859375 -58.203125 26.039062 -57.105469 C 26.132812 -55.738281 26.222656 -54.640625 26.316406 -53.910156 C 26.316406 -53.085938 26.40625 -51.988281 26.589844 -50.710938 C 26.589844 -49.433594 26.589844 -47.511719 26.589844 -44.953125 C 26.40625 -40.203125 26.316406 -36.183594 26.316406 -32.894531 C 26.222656 -29.605469 26.132812 -26.953125 26.039062 -24.851562 C 25.949219 -23.757812 25.859375 -22.84375 25.859375 -22.019531 C 25.859375 -21.199219 25.859375 -20.46875 25.859375 -19.917969 C 25.859375 -19.28125 25.765625 -18.730469 25.765625 -18.273438 C 25.765625 -17.726562 25.675781 -17.359375 25.675781 -16.996094 L 25.402344 -15.351562 L 25.035156 -14.070312 C 23.757812 -17.179688 22.84375 -20.648438 22.113281 -24.488281 C 21.746094 -26.40625 21.378906 -28.417969 21.015625 -30.425781 C 20.648438 -32.4375 20.285156 -34.539062 19.917969 -36.730469 C 19.1875 -40.933594 18.367188 -45.136719 17.453125 -49.339844 C 16.539062 -53.453125 15.351562 -57.199219 13.886719 -60.671875 C 13.066406 -62.496094 12.152344 -63.6875 11.238281 -64.234375 C 10.324219 -64.78125 8.953125 -64.964844 6.945312 -64.875 C 5.664062 -64.691406 4.660156 -64.324219 3.929688 -63.777344 C 3.015625 -63.046875 2.375 -61.949219 1.828125 -60.304688 C 1.277344 -58.660156 0.824219 -56.375 0.457031 -53.453125 C 0.0898438 -50.527344 -0.183594 -46.78125 -0.367188 -42.214844 C -0.546875 -37.644531 -0.640625 -32.070312 -0.640625 -25.582031 L -0.640625 -2.558594 L 1.003906 -1.734375 C 1.371094 -1.554688 1.734375 -1.460938 2.101562 -1.460938 C 2.46875 -1.460938 2.832031 -1.554688 3.199219 -1.734375 C 3.378906 -1.828125 3.5625 -1.917969 3.835938 -2.011719 C 4.019531 -2.101562 4.292969 -2.191406 4.660156 -2.375 C 5.027344 -5.480469 5.390625 -8.773438 5.757812 -12.242188 C 5.847656 -13.980469 5.9375 -15.714844 6.03125 -17.453125 C 6.121094 -19.097656 6.214844 -20.832031 6.394531 -22.660156 C 6.488281 -24.394531 6.578125 -26.132812 6.578125 -27.777344 C 6.578125 -29.421875 6.671875 -31.15625 6.761719 -32.800781 C 6.761719 -34.445312 6.851562 -36 6.851562 -37.554688 C 6.851562 -39.105469 6.945312 -40.570312 7.035156 -42.03125 C 7.035156 -44.773438 7.125 -47.332031 7.308594 -49.707031 C 7.308594 -51.898438 7.492188 -53.726562 7.859375 -55.1875 C 8.679688 -53.816406 9.320312 -51.625 9.867188 -48.609375 C 10.050781 -47.054688 10.324219 -45.410156 10.507812 -43.585938 C 10.691406 -41.757812 10.964844 -39.835938 11.328125 -37.734375 C 11.878906 -33.351562 12.609375 -28.691406 13.523438 -23.574219 C 13.980469 -20.925781 14.527344 -18.273438 15.257812 -15.53125 C 15.898438 -12.792969 16.722656 -10.050781 17.726562 -7.125 C 17.726562 -6.761719 17.910156 -6.304688 18.183594 -5.757812 L 18.730469 -4.386719 C 19.28125 -2.742188 20.191406 -1.644531 21.472656 -1.097656 C 22.570312 -0.367188 23.9375 -0.0898438 25.582031 -0.273438 Z M 25.582031 -0.273438 "/></g></g></g><g fill="#596cc8" fill-opacity="1"><g transform="translate(637.471479, 80.373576)"><g><path d="M 10.78125 -0.914062 L 10.78125 -0.730469 C 14.253906 0.183594 17.085938 0.183594 19.097656 -0.546875 C 21.105469 -1.277344 23.027344 -3.199219 24.671875 -6.304688 C 24.851562 -6.671875 25.035156 -7.035156 25.21875 -7.492188 L 25.859375 -9.136719 C 26.222656 -10.234375 26.679688 -11.605469 27.230469 -13.25 C 27.410156 -13.980469 27.683594 -14.800781 27.867188 -15.625 C 28.050781 -16.445312 28.234375 -17.359375 28.417969 -18.273438 C 28.78125 -20.101562 29.054688 -22.019531 29.238281 -24.03125 C 29.332031 -25.675781 29.511719 -27.59375 29.785156 -29.695312 C 29.878906 -30.699219 29.96875 -31.796875 30.0625 -32.894531 C 30.152344 -33.988281 30.242188 -35.179688 30.425781 -36.457031 C 30.609375 -38.832031 30.699219 -41.207031 30.699219 -43.765625 C 30.699219 -44.953125 30.609375 -46.140625 30.519531 -47.332031 C 30.335938 -48.519531 30.152344 -49.707031 29.96875 -50.984375 C 29.511719 -53.269531 28.78125 -55.460938 27.777344 -57.65625 C 26.679688 -59.664062 25.308594 -61.492188 23.664062 -63.136719 C 22.660156 -63.867188 21.5625 -64.324219 20.285156 -64.324219 L 15.441406 -64.324219 C 13.066406 -64.140625 11.148438 -63.59375 9.683594 -62.679688 C 8.039062 -61.585938 6.761719 -60.214844 5.847656 -58.570312 C 4.75 -56.742188 4.019531 -54.730469 3.472656 -52.539062 C 2.925781 -50.164062 2.46875 -47.789062 2.101562 -45.410156 C 1.734375 -42.945312 1.460938 -40.386719 1.277344 -37.828125 C 1.097656 -36.546875 1.003906 -35.269531 0.914062 -34.082031 C 0.730469 -32.894531 0.640625 -31.707031 0.546875 -30.609375 C 0.367188 -29.332031 0.273438 -28.050781 0.183594 -26.773438 C 0.0898438 -25.492188 0.0898438 -24.214844 0.0898438 -23.027344 C 0.0898438 -21.746094 0.0898438 -20.558594 0.183594 -19.28125 C 0.183594 -18 0.273438 -16.722656 0.457031 -15.441406 C 0.730469 -13.15625 1.277344 -11.148438 2.191406 -9.410156 C 3.105469 -7.582031 4.203125 -5.847656 5.664062 -4.292969 C 6.394531 -3.378906 7.125 -2.648438 7.949219 -2.191406 C 8.953125 -1.554688 9.867188 -1.097656 10.78125 -0.914062 Z M 14.070312 -4.660156 L 14.4375 -4.292969 C 12.792969 -5.664062 11.605469 -7.21875 10.691406 -8.953125 C 9.683594 -10.78125 9.046875 -12.609375 8.863281 -14.527344 C 8.316406 -17.085938 8.039062 -19.917969 8.039062 -23.027344 C 7.949219 -24.578125 7.949219 -26.132812 7.949219 -27.777344 C 7.949219 -29.332031 7.949219 -30.976562 8.132812 -32.621094 C 8.222656 -34.265625 8.316406 -35.816406 8.496094 -37.460938 C 8.589844 -39.015625 8.773438 -40.570312 9.046875 -42.214844 C 9.410156 -45.320312 9.960938 -48.152344 10.691406 -50.710938 C 11.238281 -53.179688 11.96875 -55.28125 12.882812 -57.105469 C 13.613281 -58.75 14.527344 -59.847656 15.625 -60.394531 C 16.539062 -60.03125 17.179688 -59.574219 17.726562 -58.84375 C 18.089844 -58.113281 18.457031 -57.382812 18.824219 -56.46875 C 19.1875 -55.1875 19.644531 -54 20.011719 -52.722656 C 20.375 -51.441406 20.742188 -50.253906 21.105469 -49.066406 C 21.835938 -46.691406 22.113281 -44.132812 22.019531 -41.390625 C 22.019531 -37.097656 21.929688 -32.894531 21.746094 -28.875 C 21.5625 -24.671875 21.105469 -20.558594 20.375 -16.355469 C 20.101562 -14.894531 19.644531 -13.429688 19.097656 -11.96875 C 18.730469 -11.238281 18.457031 -10.597656 18.183594 -9.867188 C 17.816406 -9.136719 17.542969 -8.496094 17.269531 -7.859375 C 16.902344 -7.125 16.539062 -6.488281 16.171875 -6.03125 C 15.714844 -5.480469 14.984375 -5.027344 14.070312 -4.660156 Z M 14.070312 -4.660156 "/></g></g></g></svg>