<svg xmlns="http://www.w3.org/2000/svg" xmlns:xlink="http://www.w3.org/1999/xlink" width="432" zoomAndPan="magnify" viewBox="0 0 324 323.999988" height="432" preserveAspectRatio="xMidYMid meet" version="1.0"><defs><clipPath id="3e7d57b225"><path d="M 18.023438 18.023438 L 306.023438 18.023438 L 306.023438 306.023438 L 18.023438 306.023438 Z M 18.023438 18.023438 " clip-rule="nonzero"/></clipPath></defs><rect x="-32.4" width="388.8" fill="#ffffff" y="-32.399999" height="388.799985" fill-opacity="1"/><rect x="-32.4" width="388.8" fill="#ffffff" y="-32.399999" height="388.799985" fill-opacity="1"/><rect x="-32.4" width="388.8" fill="#596cc8" y="-32.399999" height="388.799985" fill-opacity="1"/><path fill="#ffffff" d="M 235.847656 119.714844 C 236.265625 121 236.699219 122.316406 236.699219 123.730469 L 236.699219 200.429688 C 236.699219 207.976562 230.5625 214.113281 223.011719 214.113281 L 100.9375 214.113281 C 93.386719 214.113281 87.253906 207.976562 87.253906 200.429688 L 87.253906 123.730469 C 87.253906 122.316406 87.667969 121 88.054688 119.714844 L 161.941406 171.871094 Z M 221.742188 110.0625 L 102.175781 110.0625 L 161.957031 152.289062 Z M 221.742188 110.0625 " fill-opacity="1" fill-rule="nonzero"/><g clip-path="url(#3e7d57b225)"><path fill="#ffffff" d="M 161.957031 18.054688 C 82.417969 18.054688 17.957031 82.5625 17.957031 162.136719 C 17.957031 241.644531 82.433594 306.121094 161.957031 306.121094 C 241.515625 306.121094 306.007812 241.644531 306.007812 162.136719 C 306.007812 82.5625 241.515625 18.054688 161.957031 18.054688 Z M 252.679688 200.429688 C 252.679688 216.796875 239.378906 230.078125 223.027344 230.078125 L 100.953125 230.078125 C 84.585938 230.078125 71.300781 216.796875 71.300781 200.429688 L 71.300781 123.730469 C 71.300781 107.363281 84.585938 94.078125 100.953125 94.078125 L 223.027344 94.078125 C 239.378906 94.078125 252.679688 107.363281 252.679688 123.730469 Z M 252.679688 200.429688 " fill-opacity="1" fill-rule="nonzero"/></g></svg>