<svg xmlns="http://www.w3.org/2000/svg" xmlns:xlink="http://www.w3.org/1999/xlink" width="432" zoomAndPan="magnify" viewBox="0 0 324 323.999988" height="432" preserveAspectRatio="xMidYMid meet" version="1.0"><defs><clipPath id="e170367e60"><path d="M 15.328125 15.328125 L 303.328125 15.328125 L 303.328125 303.328125 L 15.328125 303.328125 Z M 15.328125 15.328125 " clip-rule="nonzero"/></clipPath></defs><rect x="-32.4" width="388.8" fill="#ffffff" y="-32.399999" height="388.799985" fill-opacity="1"/><rect x="-32.4" width="388.8" fill="#ffffff" y="-32.399999" height="388.799985" fill-opacity="1"/><rect x="-32.4" width="388.8" fill="#596cc8" y="-32.399999" height="388.799985" fill-opacity="1"/><g clip-path="url(#e170367e60)"><path fill="#ffffff" d="M 159.265625 15.363281 C 79.707031 15.363281 15.265625 79.867188 15.265625 159.441406 C 15.265625 238.953125 79.707031 303.425781 159.265625 303.425781 C 238.808594 303.425781 303.3125 238.953125 303.3125 159.441406 C 303.3125 79.867188 238.808594 15.363281 159.265625 15.363281 Z M 208.335938 158.0625 L 159.265625 261.003906 L 110.179688 158.0625 L 110.371094 158.0625 C 105.230469 149.453125 102.050781 139.523438 102.050781 128.761719 C 102.050781 97.167969 127.671875 71.582031 159.265625 71.582031 C 190.859375 71.582031 216.496094 97.167969 216.496094 128.761719 C 216.496094 139.523438 213.347656 149.46875 208.207031 158.0625 Z M 185.351562 129.695312 C 185.351562 144.117188 173.707031 155.765625 159.265625 155.765625 C 144.890625 155.765625 133.226562 144.117188 133.226562 129.695312 C 133.226562 115.300781 144.875 103.707031 159.265625 103.707031 C 173.707031 103.707031 185.351562 115.300781 185.351562 129.695312 Z M 185.351562 129.695312 " fill-opacity="1" fill-rule="nonzero"/></g></svg>