<svg xmlns="http://www.w3.org/2000/svg" xmlns:xlink="http://www.w3.org/1999/xlink" width="432" zoomAndPan="magnify" viewBox="0 0 324 323.999988" height="432" preserveAspectRatio="xMidYMid meet" version="1.0"><defs><clipPath id="2a5c57b696"><path d="M 15.328125 15.328125 L 306.328125 15.328125 L 306.328125 306.328125 L 15.328125 306.328125 Z M 15.328125 15.328125 " clip-rule="nonzero"/></clipPath></defs><rect x="-32.4" width="388.8" fill="#ffffff" y="-32.399999" height="388.799985" fill-opacity="1"/><rect x="-32.4" width="388.8" fill="#ffffff" y="-32.399999" height="388.799985" fill-opacity="1"/><rect x="-32.4" width="388.8" fill="#596cc8" y="-32.399999" height="388.799985" fill-opacity="1"/><g clip-path="url(#2a5c57b696)"><path fill="#ffffff" d="M 160.765625 15.363281 C 80.378906 15.363281 15.265625 80.542969 15.265625 160.945312 C 15.265625 241.28125 80.378906 306.425781 160.765625 306.425781 C 241.136719 306.425781 306.3125 241.28125 306.3125 160.945312 C 306.3125 80.542969 241.136719 15.363281 160.765625 15.363281 Z M 210.347656 159.546875 L 160.765625 263.5625 L 111.167969 159.546875 L 111.363281 159.546875 C 106.167969 150.847656 102.953125 140.820312 102.953125 129.945312 C 102.953125 98.019531 128.839844 72.167969 160.765625 72.167969 C 192.6875 72.167969 218.589844 98.019531 218.589844 129.945312 C 218.589844 140.820312 215.410156 150.863281 210.21875 159.546875 Z M 187.121094 130.886719 C 187.121094 145.460938 175.355469 157.226562 160.765625 157.226562 C 146.238281 157.226562 134.457031 145.460938 134.457031 130.886719 C 134.457031 116.34375 146.222656 104.625 160.765625 104.625 C 175.355469 104.625 187.121094 116.34375 187.121094 130.886719 Z M 187.121094 130.886719 " fill-opacity="1" fill-rule="nonzero"/></g></svg>