<svg xmlns="http://www.w3.org/2000/svg" xmlns:xlink="http://www.w3.org/1999/xlink" width="432" zoomAndPan="magnify" viewBox="0 0 324 323.999988" height="432" preserveAspectRatio="xMidYMid meet" version="1.0"><defs><clipPath id="71d8bdc4df"><path d="M 18.023438 18.023438 L 306 18.023438 L 306 306 L 18.023438 306 Z M 18.023438 18.023438 " clip-rule="nonzero"/></clipPath></defs><rect x="-32.4" width="388.8" fill="#ffffff" y="-32.399999" height="388.799985" fill-opacity="1"/><rect x="-32.4" width="388.8" fill="#ffffff" y="-32.399999" height="388.799985" fill-opacity="1"/><rect x="-32.4" width="388.8" fill="#596cc8" y="-32.399999" height="388.799985" fill-opacity="1"/><g clip-path="url(#71d8bdc4df)"><path fill="#ffffff" d="M 162.007812 18.023438 C 82.511719 18.023438 18.039062 82.492188 18.039062 162.023438 C 18.039062 241.488281 82.511719 305.976562 162.007812 305.976562 C 241.519531 305.976562 305.925781 241.488281 305.925781 162.023438 C 305.925781 82.511719 241.519531 18.023438 162.007812 18.023438 Z M 228.933594 231.839844 C 210.039062 244.054688 186.328125 245.644531 130.171875 201.449219 C 73.9375 157.253906 69.925781 133.800781 77.371094 112.578125 C 84.789062 91.371094 105.050781 85.449219 111.9375 90.34375 C 118.808594 95.242188 134.441406 123.15625 132.660156 128.488281 C 130.878906 133.863281 114.375 141.136719 115.964844 149.695312 C 117.570312 158.203125 130.058594 171.125 144.8125 182.765625 C 159.613281 194.371094 175.140625 203.488281 183.757812 203.007812 C 192.429688 202.605469 195.671875 184.835938 200.421875 181.785156 C 205.238281 178.832031 236.011719 187.46875 242.402344 192.988281 C 248.777344 198.578125 247.78125 219.621094 228.933594 231.839844 Z M 228.933594 231.839844 " fill-opacity="1" fill-rule="nonzero"/></g></svg>